<svg width="24" height="24" viewBox="0 0 24 24" fill="none" xmlns="http://www.w3.org/2000/svg">
<g clip-path="url(#clip0_2037_559)">
<path d="M20.6614 19.3765C10.9463 24.0001 4.91692 20.1317 1.05736 17.782C0.818527 17.634 0.412602 17.8167 0.764798 18.2212C2.05061 19.7803 6.2645 23.5381 11.7648 23.5381C17.269 23.5381 20.5434 20.5348 20.953 20.0109C21.3599 19.4914 21.0725 19.2049 20.6613 19.3765H20.6614ZM23.3899 17.8697C23.129 17.5299 21.8035 17.4666 20.9693 17.5691C20.1338 17.6686 18.8798 18.1792 18.9888 18.4858C19.0447 18.6006 19.1589 18.5491 19.7329 18.4975C20.3084 18.4401 21.9206 18.2366 22.2566 18.6758C22.5941 19.118 21.7424 21.2245 21.5868 21.5643C21.4365 21.904 21.6442 21.9916 21.9265 21.7653C22.205 21.5391 22.709 20.9534 23.0473 20.1245C23.3832 19.291 23.5882 18.1283 23.3899 17.8697Z" fill="#FF9900"/>
<path fill-rule="evenodd" clip-rule="evenodd" d="M14.1287 9.94199C14.1287 11.1551 14.1593 12.1669 13.5461 13.2442C13.0512 14.1202 12.2673 14.6589 11.3913 14.6589C10.1956 14.6589 9.49927 13.7479 9.49927 12.4034C9.49927 9.74922 11.8774 9.2675 14.1287 9.2675V9.94199ZM17.2689 17.5321C17.063 17.716 16.7652 17.7292 16.5331 17.6065C15.4995 16.7481 15.3155 16.3495 14.7462 15.5305C13.0381 17.2737 11.8293 17.7948 9.61319 17.7948C6.99411 17.7948 4.95312 16.1787 4.95312 12.9421C4.95312 10.415 6.32406 8.69374 8.27291 7.85291C9.96354 7.10826 12.3242 6.97689 14.1287 6.77111V6.36814C14.1287 5.62793 14.1855 4.75201 13.752 4.11261C13.3709 3.53885 12.6439 3.30233 12.0044 3.30233C10.8176 3.30233 9.75767 3.91108 9.49927 5.17243C9.44665 5.4528 9.24087 5.72874 8.96059 5.74185L5.93853 5.41782C5.68457 5.36076 5.40429 5.15498 5.47436 4.76512C6.17072 1.10376 9.47729 0 12.438 0C13.9534 0 15.933 0.402971 17.1287 1.55049C18.6441 2.96509 18.4995 4.85273 18.4995 6.90682V11.7596C18.4995 13.218 19.1039 13.8574 19.6732 14.6458C19.8747 14.9261 19.9185 15.2634 19.6645 15.4735C19.0294 16.0034 17.8994 16.9889 17.2776 17.5408L17.2688 17.5321" fill="black"/>
<path d="M20.6614 19.3765C10.9463 24.0001 4.91692 20.1317 1.05736 17.782C0.818527 17.634 0.412602 17.8167 0.764798 18.2212C2.05061 19.7803 6.2645 23.5381 11.7648 23.5381C17.269 23.5381 20.5434 20.5348 20.953 20.0109C21.3599 19.4914 21.0725 19.2049 20.6613 19.3765H20.6614ZM23.3899 17.8697C23.129 17.5299 21.8035 17.4666 20.9693 17.5691C20.1338 17.6686 18.8798 18.1792 18.9888 18.4858C19.0447 18.6006 19.1589 18.5491 19.7329 18.4975C20.3084 18.4401 21.9206 18.2366 22.2566 18.6758C22.5941 19.118 21.7424 21.2245 21.5868 21.5643C21.4365 21.904 21.6442 21.9916 21.9265 21.7653C22.205 21.5391 22.709 20.9534 23.0473 20.1245C23.3832 19.291 23.5882 18.1283 23.3899 17.8697Z" fill="#FF9900"/>
<path fill-rule="evenodd" clip-rule="evenodd" d="M14.1287 9.94199C14.1287 11.1551 14.1593 12.1669 13.5461 13.2442C13.0512 14.1202 12.2673 14.6589 11.3913 14.6589C10.1956 14.6589 9.49927 13.7479 9.49927 12.4034C9.49927 9.74922 11.8774 9.2675 14.1287 9.2675V9.94199ZM17.2689 17.5321C17.063 17.716 16.7652 17.7292 16.5331 17.6065C15.4995 16.7481 15.3155 16.3495 14.7462 15.5305C13.0381 17.2737 11.8293 17.7948 9.61319 17.7948C6.99411 17.7948 4.95312 16.1787 4.95312 12.9421C4.95312 10.415 6.32406 8.69374 8.27291 7.85291C9.96354 7.10826 12.3242 6.97689 14.1287 6.77111V6.36814C14.1287 5.62793 14.1855 4.75201 13.752 4.11261C13.3709 3.53885 12.6439 3.30233 12.0044 3.30233C10.8176 3.30233 9.75767 3.91108 9.49927 5.17243C9.44665 5.4528 9.24087 5.72874 8.96059 5.74185L5.93853 5.41782C5.68457 5.36076 5.40429 5.15498 5.47436 4.76512C6.17072 1.10376 9.47729 0 12.438 0C13.9534 0 15.933 0.402971 17.1287 1.55049C18.6441 2.96509 18.4995 4.85273 18.4995 6.90682V11.7596C18.4995 13.218 19.1039 13.8574 19.6732 14.6458C19.8747 14.9261 19.9185 15.2634 19.6645 15.4735C19.0294 16.0034 17.8994 16.9889 17.2776 17.5408L17.2688 17.5321" fill="black"/>
</g>
<defs>
<clipPath id="clip0_2037_559">
<rect width="24" height="24" fill="white"/>
</clipPath>
</defs>
</svg>
