<svg width="59" height="50" viewBox="0 0 59 50" fill="none" xmlns="http://www.w3.org/2000/svg">
<g clip-path="url(#clip0_3_81)">
<path d="M52.0493 14.5708C52.0493 16.2449 50.7191 17.6019 49.0782 17.6019C47.4372 17.6019 46.1073 16.2449 46.1073 14.5708C46.1073 12.8966 47.4374 11.5398 49.0782 11.5398C50.719 11.5398 52.0493 12.8968 52.0493 14.5708Z" fill="white"/>
<path d="M6.6481 36.4414C1.42715 29.5709 2.65408 19.6832 9.38853 14.3567C14.3713 10.4157 20.9724 10.0768 26.1842 12.9493C28.9565 7.95647 34.2973 4.73809 40.1998 4.97166V2.63507C40.1998 1.17978 39.0434 0 37.6169 0H20.8415C19.4149 0 18.2586 1.17978 18.2586 2.63507V5.28471H7.69718C3.44618 5.28472 0 8.80037 0 13.1375V42.1473C0 46.4842 3.44618 50 7.69718 50H35.6075C30.7204 48.5447 11.2054 42.4388 6.6481 36.4414Z" fill="white"/>
<path d="M50.761 5.28467H42.7358C50.3845 6.88596 55.7604 14.1626 54.969 22.2628C54.1881 30.2541 39.2778 47.4288 37.0099 50H50.761C55.0124 50 58.4584 46.4841 58.4584 42.1472V13.1374C58.4584 8.80049 55.0124 5.28467 50.761 5.28467Z" fill="white"/>
<path d="M29.2291 39.931C26.0117 39.931 22.9868 38.6527 20.7118 36.3318C18.4366 34.0106 17.1837 30.9248 17.1837 27.6423C17.1837 24.3599 18.4367 21.2738 20.7118 18.9529C22.9868 16.6317 26.0117 15.3535 29.2291 15.3535C32.4465 15.3535 35.4713 16.6317 37.7464 18.9529C40.0215 21.274 41.2745 24.3599 41.2745 27.6423C41.2745 30.9248 40.0214 34.0106 37.7464 36.3318C35.4713 38.6527 32.4465 39.931 29.2291 39.931ZM29.2291 19.0387C24.579 19.0387 20.7959 22.8983 20.7959 27.6423C20.7959 32.3864 24.579 36.2458 29.2291 36.2458C33.8792 36.2458 37.6623 32.3862 37.6623 27.6423C37.6623 22.8985 33.8792 19.0387 29.2291 19.0387Z" fill="white"/>
<path d="M46.3314 14.8799C46.3314 16.3222 45.1853 17.4914 43.7716 17.4914C42.3579 17.4914 41.2118 16.3222 41.2118 14.8799C41.2118 13.4376 42.3579 12.2683 43.7716 12.2683C45.1853 12.2683 46.3314 13.4376 46.3314 14.8799Z" fill="white"/>
</g>
<defs>
<clipPath id="clip0_3_81">
<rect width="58.4583" height="50" fill="white"/>
</clipPath>
</defs>
</svg>
