<svg width="24" height="24" viewBox="0 0 24 24" fill="none" xmlns="http://www.w3.org/2000/svg">
<g clip-path="url(#clip0_2037_203)">
<path fill-rule="evenodd" clip-rule="evenodd" d="M23.895 12.2729C23.895 11.422 23.8186 10.6038 23.6768 9.81836H12.375V14.4602H18.8332C18.555 15.9602 17.7095 17.2311 16.4386 18.082V21.0929H20.3168C22.5859 19.0038 23.895 15.9275 23.895 12.2729Z" fill="#4285F4"/>
<path fill-rule="evenodd" clip-rule="evenodd" d="M12.375 24.0003C15.615 24.0003 18.3314 22.9257 20.3168 21.093L16.4386 18.0821C15.3641 18.8021 13.9896 19.2275 12.375 19.2275C9.24955 19.2275 6.6041 17.1166 5.66046 14.2803H1.65137V17.3894C3.62591 21.3112 7.6841 24.0003 12.375 24.0003Z" fill="#34A853"/>
<path fill-rule="evenodd" clip-rule="evenodd" d="M5.66046 14.2804C5.42046 13.5604 5.28409 12.7913 5.28409 12.0004C5.28409 11.2095 5.42046 10.4404 5.66046 9.72042V6.61133H1.65136C0.838636 8.23133 0.375 10.0641 0.375 12.0004C0.375 13.9368 0.838636 15.7695 1.65136 17.3895L5.66046 14.2804Z" fill="#FBBC05"/>
<path fill-rule="evenodd" clip-rule="evenodd" d="M12.375 4.77273C14.1368 4.77273 15.7186 5.37818 16.9623 6.56728L20.4041 3.12546C18.3259 1.18909 15.6096 0 12.375 0C7.6841 0 3.62591 2.68909 1.65137 6.61091L5.66046 9.72001C6.6041 6.88364 9.24955 4.77273 12.375 4.77273Z" fill="#EA4335"/>
</g>
<defs>
<clipPath id="clip0_2037_203">
<rect width="24" height="24" fill="white"/>
</clipPath>
</defs>
</svg>
