<svg width="111" height="34" viewBox="0 0 111 34" fill="none" xmlns="http://www.w3.org/2000/svg">
<path d="M38.4596 21.7869V13.9926H40.2609C41.6128 13.9926 42.7645 13.5093 43.7162 12.5425C44.6678 11.5758 45.1436 10.4127 45.1436 9.05325V6.0511C45.1436 4.63877 44.7244 3.47567 43.8861 2.56181C42.9873 1.60264 41.7789 1.12305 40.2609 1.12305H35.3555V21.7869H38.4596ZM40.3402 10.9112H38.4596V4.30646H40.3402C40.884 4.30646 41.3163 4.47073 41.6373 4.79926C41.9583 5.1278 42.1188 5.56396 42.1188 6.10775V9.12122C42.1188 9.61214 41.947 10.0332 41.6033 10.3844C41.2597 10.7356 40.8386 10.9112 40.3402 10.9112ZM50.0919 21.7869L50.851 17.0401H54.1023L54.8387 21.7869H58.1014L54.6461 1.12305H50.3525L46.8519 21.7869H50.0919ZM53.6379 14.004H51.3268L52.4823 5.85851L53.6379 14.004ZM65.055 21.7869V13.9926H66.8563C68.2082 13.9926 69.3599 13.5093 70.3116 12.5425C71.2632 11.5758 71.739 10.4127 71.739 9.05325V6.0511C71.739 4.63877 71.3198 3.47567 70.4815 2.56181C69.5827 1.60264 68.3743 1.12305 66.8563 1.12305H61.9509V21.7869H65.055ZM66.9356 10.9112H65.055V4.30646H66.9356C67.4793 4.30646 67.9117 4.47073 68.2327 4.79926C68.5537 5.1278 68.7142 5.56396 68.7142 6.10775V9.12122C68.7142 9.61214 68.5424 10.0332 68.1987 10.3844C67.8551 10.7356 67.434 10.9112 66.9356 10.9112ZM84.3117 21.7869V18.6715H78.5566V13.0184H82.7596V9.89159H78.5566V4.23848H84.3117V1.12305H75.4525V21.7869H84.3117ZM90.7894 21.7869V13.9926H92.5793C92.6775 13.9926 92.7719 13.9889 92.8626 13.9813L94.7658 21.7869H98.1305L95.8194 12.7578C96.9296 11.7533 97.4847 10.5184 97.4847 9.05325V6.0511C97.4847 4.56324 97.126 3.40015 96.4085 2.56181C95.6004 1.60264 94.3278 1.12305 92.5907 1.12305H87.6853V21.7869H90.7894ZM92.67 10.9112H90.7894V4.30646H92.67C93.8557 4.30646 94.4486 4.90689 94.4486 6.10775V9.12122C94.4486 9.61214 94.2768 10.0332 93.9331 10.3844C93.5895 10.7356 93.1684 10.9112 92.67 10.9112ZM110.93 21.7869V18.6941H105.197L110.93 4.23848V1.12305H101.844V4.23848H107.588L101.844 18.6941V21.7869H110.93Z" fill="#143C5D"/>
<path d="M37.6543 32.37V31.9158H35.405V27.3732H34.8555V32.37H37.6543ZM39.7278 32.4873C40.0892 32.4873 40.4019 32.4152 40.6656 32.2711C40.9294 32.127 41.1419 31.928 41.303 31.674L40.9074 31.4102C40.7902 31.6056 40.6351 31.7582 40.4422 31.8681C40.2492 31.978 40.0062 32.033 39.7131 32.033C39.3517 32.033 39.0659 31.9084 38.8559 31.6593C38.6459 31.4102 38.5311 31.1098 38.5115 30.7581H41.3324C41.3372 30.7093 41.3397 30.6385 41.3397 30.5457C41.3397 30.2233 41.2689 29.9314 41.1272 29.6701C40.9856 29.4088 40.7902 29.2024 40.5411 29.051C40.2919 28.8996 40.0135 28.8239 39.7058 28.8239C39.3785 28.8239 39.0867 28.902 38.8303 29.0583C38.5738 29.2146 38.3736 29.432 38.2295 29.7104C38.0854 29.9888 38.0133 30.3039 38.0133 30.6556C38.0133 31.0073 38.0866 31.3223 38.2331 31.6007C38.3797 31.8791 38.5824 32.0965 38.8412 32.2528C39.1001 32.4091 39.3956 32.4873 39.7278 32.4873ZM40.8415 30.3478H38.5408C38.5946 30.0401 38.7228 29.7849 38.9255 29.5822C39.1282 29.3795 39.3883 29.2781 39.7058 29.2781C40.0331 29.2781 40.292 29.3673 40.4824 29.5456C40.6729 29.7238 40.7926 29.9913 40.8415 30.3478ZM43.567 32.4873C43.8113 32.4873 44.0359 32.4323 44.2411 32.3224C44.4462 32.2125 44.6196 32.0599 44.7613 31.8645V32.37H45.2595V28.9411H44.7613V29.454C44.6196 29.2537 44.445 29.0986 44.2374 28.9887C44.0298 28.8788 43.8015 28.8239 43.5524 28.8239C43.2251 28.8239 42.9333 28.902 42.6768 29.0583C42.4204 29.2146 42.2201 29.4308 42.076 29.7067C41.9319 29.9827 41.8599 30.2965 41.8599 30.6482C41.8599 31.0048 41.9332 31.3223 42.0797 31.6007C42.2262 31.8791 42.4289 32.0965 42.6878 32.2528C42.9467 32.4091 43.2398 32.4873 43.567 32.4873ZM43.5524 32.033C43.3228 32.033 43.1176 31.9744 42.9369 31.8572C42.7562 31.7399 42.6145 31.5763 42.512 31.3663C42.4094 31.1562 42.3581 30.9169 42.3581 30.6482C42.3581 30.3845 42.4094 30.1488 42.512 29.9412C42.6145 29.7336 42.7562 29.5712 42.9369 29.454C43.1176 29.3367 43.3228 29.2781 43.5524 29.2781C43.7868 29.2781 43.9956 29.3367 44.1788 29.454C44.362 29.5712 44.5049 29.7348 44.6074 29.9449C44.71 30.1549 44.7613 30.3918 44.7613 30.6556C44.7613 30.9193 44.71 31.1562 44.6074 31.3663C44.5049 31.5763 44.362 31.7399 44.1788 31.8572C43.9956 31.9744 43.7868 32.033 43.5524 32.033ZM47.6774 32.4873C47.9216 32.4873 48.1463 32.4323 48.3514 32.3224C48.5566 32.2125 48.73 32.0599 48.8716 31.8645V32.37H49.3698V27.0508H48.8716V29.454C48.73 29.2537 48.5553 29.0986 48.3478 28.9887C48.1402 28.8788 47.9118 28.8239 47.6627 28.8239C47.3354 28.8239 47.0436 28.902 46.7872 29.0583C46.5307 29.2146 46.3304 29.4308 46.1864 29.7067C46.0423 29.9827 45.9702 30.2965 45.9702 30.6482C45.9702 31.0048 46.0435 31.3223 46.19 31.6007C46.3366 31.8791 46.5393 32.0965 46.7981 32.2528C47.057 32.4091 47.3501 32.4873 47.6774 32.4873ZM47.6627 32.033C47.4331 32.033 47.228 31.9744 47.0473 31.8572C46.8665 31.7399 46.7249 31.5763 46.6223 31.3663C46.5197 31.1562 46.4684 30.9169 46.4684 30.6482C46.4684 30.3845 46.5197 30.1488 46.6223 29.9412C46.7249 29.7336 46.8665 29.5712 47.0473 29.454C47.228 29.3367 47.4331 29.2781 47.6627 29.2781C47.8972 29.2781 48.106 29.3367 48.2891 29.454C48.4723 29.5712 48.6152 29.7348 48.7178 29.9449C48.8203 30.1549 48.8716 30.3918 48.8716 30.6556C48.8716 30.9193 48.8203 31.1562 48.7178 31.3663C48.6152 31.5763 48.4723 31.7399 48.2891 31.8572C48.106 31.9744 47.8972 32.033 47.6627 32.033ZM50.8132 28.2744C50.9207 28.2744 51.0135 28.2353 51.0916 28.1571C51.1698 28.079 51.2089 27.9862 51.2089 27.8787C51.2089 27.7664 51.1698 27.6723 51.0916 27.5966C51.0135 27.5209 50.9207 27.4831 50.8132 27.4831C50.7009 27.4831 50.6069 27.5209 50.5311 27.5966C50.4554 27.6723 50.4176 27.7639 50.4176 27.8714C50.4176 27.9837 50.4554 28.079 50.5311 28.1571C50.6069 28.2353 50.7009 28.2744 50.8132 28.2744ZM51.0623 32.37V28.9411H50.5641V32.37H51.0623ZM52.7548 32.37V30.6556C52.7548 30.2355 52.8427 29.9009 53.0186 29.6518C53.1944 29.4027 53.4582 29.2781 53.8099 29.2781C54.4156 29.2781 54.7184 29.6176 54.7184 30.2966V32.37H55.2166V30.0767C55.2166 29.8179 55.1568 29.5932 55.0371 29.4027C54.9174 29.2122 54.7563 29.0681 54.5536 28.9704C54.3508 28.8727 54.1298 28.8239 53.8905 28.8239C53.6365 28.8239 53.413 28.8837 53.2201 29.0034C53.0271 29.123 52.872 29.2928 52.7548 29.5126V28.9411H52.2566V32.37H52.7548ZM57.8689 33.8354C58.162 33.8354 58.4233 33.767 58.6529 33.6302C58.8825 33.4935 59.0607 33.3042 59.1877 33.0624C59.3147 32.8206 59.3782 32.5459 59.3782 32.2382V28.9411H58.88V29.454C58.7384 29.2537 58.5637 29.0986 58.3562 28.9887C58.1486 28.8788 57.9202 28.8239 57.6711 28.8239C57.3438 28.8239 57.052 28.902 56.7955 29.0583C56.5391 29.2146 56.3388 29.4308 56.1948 29.7067C56.0507 29.9827 55.9786 30.2965 55.9786 30.6482C55.9786 31.0048 56.0519 31.3223 56.1984 31.6007C56.345 31.8791 56.5477 32.0965 56.8065 32.2528C57.0654 32.4091 57.3585 32.4873 57.6858 32.4873C57.93 32.4873 58.1547 32.4323 58.3598 32.3224C58.565 32.2125 58.7384 32.0599 58.88 31.8645V32.2382C58.88 32.5703 58.786 32.8438 58.5979 33.0588C58.4099 33.2737 58.1669 33.3811 57.8689 33.3811H56.4475V33.8354H57.8689ZM57.6711 32.033C57.4415 32.033 57.2364 31.9744 57.0557 31.8572C56.8749 31.7399 56.7333 31.5763 56.6307 31.3663C56.5281 31.1562 56.4768 30.9169 56.4768 30.6482C56.4768 30.3845 56.5281 30.1488 56.6307 29.9412C56.7333 29.7336 56.8749 29.5712 57.0557 29.454C57.2364 29.3367 57.4415 29.2781 57.6711 29.2781C57.9056 29.2781 58.1144 29.3367 58.2975 29.454C58.4807 29.5712 58.6236 29.7348 58.7262 29.9449C58.8287 30.1549 58.88 30.3918 58.88 30.6556C58.88 30.9193 58.8287 31.1562 58.7262 31.3663C58.6236 31.5763 58.4807 31.7399 58.2975 31.8572C58.1144 31.9744 57.9056 32.033 57.6711 32.033ZM62.6094 32.37V30.4577H63.6717C64.1358 30.4577 64.5082 30.321 64.7891 30.0474C65.0699 29.7739 65.2104 29.3978 65.2104 28.9191C65.2104 28.4355 65.076 28.057 64.8074 27.7835C64.5387 27.5099 64.1797 27.3732 63.7304 27.3732H62.0598V32.37H62.6094ZM63.6571 30.0035H62.6094V27.8274H63.6571C63.9843 27.8274 64.2335 27.9202 64.4044 28.1058C64.5754 28.2915 64.6609 28.5625 64.6609 28.9191C64.6609 29.2757 64.5754 29.5456 64.4044 29.7287C64.2335 29.9119 63.9843 30.0035 63.6571 30.0035ZM67.3498 32.4873C67.594 32.4873 67.8187 32.4323 68.0239 32.3224C68.229 32.2125 68.4024 32.0599 68.5441 31.8645V32.37H69.0423V28.9411H68.5441V29.454C68.4024 29.2537 68.2278 29.0986 68.0202 28.9887C67.8126 28.8788 67.5843 28.8239 67.3351 28.8239C67.0079 28.8239 66.716 28.902 66.4596 29.0583C66.2031 29.2146 66.0029 29.4308 65.8588 29.7067C65.7147 29.9827 65.6426 30.2965 65.6426 30.6482C65.6426 31.0048 65.7159 31.3223 65.8625 31.6007C66.009 31.8791 66.2117 32.0965 66.4706 32.2528C66.7295 32.4091 67.0225 32.4873 67.3498 32.4873ZM67.3351 32.033C67.1056 32.033 66.9004 31.9744 66.7197 31.8572C66.539 31.7399 66.3973 31.5763 66.2947 31.3663C66.1922 31.1562 66.1409 30.9169 66.1409 30.6482C66.1409 30.3845 66.1922 30.1488 66.2947 29.9412C66.3973 29.7336 66.539 29.5712 66.7197 29.454C66.9004 29.3367 67.1056 29.2781 67.3351 29.2781C67.5696 29.2781 67.7784 29.3367 67.9616 29.454C68.1448 29.5712 68.2876 29.7348 68.3902 29.9449C68.4928 30.1549 68.5441 30.3918 68.5441 30.6556C68.5441 30.9193 68.4928 31.1562 68.3902 31.3663C68.2876 31.5763 68.1448 31.7399 67.9616 31.8572C67.7784 31.9744 67.5696 32.033 67.3351 32.033ZM70.471 33.8354V31.8572C70.6127 32.0574 70.7873 32.2125 70.9949 32.3224C71.2025 32.4323 71.4308 32.4873 71.6799 32.4873C72.0072 32.4873 72.299 32.4091 72.5555 32.2528C72.8119 32.0965 73.0122 31.8804 73.1563 31.6044C73.3004 31.3284 73.3724 31.0146 73.3724 30.6629C73.3724 30.3063 73.2991 29.9888 73.1526 29.7104C73.0061 29.432 72.8034 29.2146 72.5445 29.0583C72.2856 28.902 71.9925 28.8239 71.6653 28.8239C71.421 28.8239 71.1964 28.8788 70.9912 28.9887C70.7861 29.0986 70.6127 29.2513 70.471 29.4466V28.9411H69.9728V33.8354H70.471ZM71.6799 32.033C71.4455 32.033 71.2367 31.9744 71.0535 31.8572C70.8703 31.7399 70.7274 31.5763 70.6249 31.3663C70.5223 31.1562 70.471 30.9193 70.471 30.6556C70.471 30.3918 70.5223 30.1549 70.6249 29.9449C70.7274 29.7348 70.8703 29.5712 71.0535 29.454C71.2367 29.3367 71.4455 29.2781 71.6799 29.2781C71.9095 29.2781 72.1146 29.3367 72.2954 29.454C72.4761 29.5712 72.6178 29.7348 72.7203 29.9449C72.8229 30.1549 72.8742 30.3942 72.8742 30.6629C72.8742 30.9267 72.8229 31.1623 72.7203 31.3699C72.6178 31.5775 72.4761 31.7399 72.2954 31.8572C72.1146 31.9744 71.9095 32.033 71.6799 32.033ZM75.5778 32.4873C75.9392 32.4873 76.2518 32.4152 76.5156 32.2711C76.7794 32.127 76.9918 31.928 77.153 31.674L76.7574 31.4102C76.6402 31.6056 76.4851 31.7582 76.2921 31.8681C76.0992 31.978 75.8562 32.033 75.5631 32.033C75.2017 32.033 74.9159 31.9084 74.7059 31.6593C74.4959 31.4102 74.3811 31.1098 74.3615 30.7581H77.1824C77.1872 30.7093 77.1897 30.6385 77.1897 30.5457C77.1897 30.2233 77.1189 29.9314 76.9772 29.6701C76.8355 29.4088 76.6402 29.2024 76.3911 29.051C76.1419 28.8996 75.8635 28.8239 75.5558 28.8239C75.2285 28.8239 74.9367 28.902 74.6802 29.0583C74.4238 29.2146 74.2235 29.432 74.0795 29.7104C73.9354 29.9888 73.8633 30.3039 73.8633 30.6556C73.8633 31.0073 73.9366 31.3223 74.0831 31.6007C74.2297 31.8791 74.4324 32.0965 74.6912 32.2528C74.9501 32.4091 75.2456 32.4873 75.5778 32.4873ZM76.6914 30.3478H74.3908C74.4446 30.0401 74.5728 29.7849 74.7755 29.5822C74.9782 29.3795 75.2383 29.2781 75.5558 29.2781C75.8831 29.2781 76.1419 29.3673 76.3324 29.5456C76.5229 29.7238 76.6426 29.9913 76.6914 30.3478ZM78.4206 32.37V30.7288C78.4206 30.426 78.4755 30.1634 78.5854 29.9412C78.6953 29.719 78.8406 29.5492 79.0214 29.432C79.2021 29.3148 79.3975 29.2561 79.6075 29.2561C79.7296 29.2561 79.842 29.2806 79.9445 29.3294V28.8752C79.8371 28.841 79.7247 28.8239 79.6075 28.8239C79.3535 28.8239 79.1252 28.8947 78.9225 29.0363C78.7197 29.178 78.5525 29.3758 78.4206 29.6298V28.9411H77.9224V32.37H78.4206ZM84.0182 32.4873C84.4188 32.4873 84.7644 32.3871 85.055 32.1869C85.3456 31.9866 85.5788 31.696 85.7547 31.315L85.2931 31.0366C85.127 31.3638 84.9475 31.6044 84.7546 31.7582C84.5616 31.9121 84.2918 31.989 83.945 31.989C83.6666 31.989 83.4223 31.9048 83.2123 31.7363C83.0023 31.5677 82.8411 31.3247 82.7287 31.0072C82.6164 30.6898 82.5602 30.3136 82.5602 29.8789C82.5602 29.2146 82.6835 28.6956 82.9302 28.322C83.1769 27.9483 83.5176 27.7615 83.9523 27.7615C84.2551 27.7615 84.5116 27.8238 84.7216 27.9483C84.9316 28.0729 85.1148 28.2792 85.2711 28.5674L85.7107 28.311C85.5447 27.9788 85.3139 27.7212 85.0183 27.538C84.7228 27.3548 84.3675 27.2633 83.9523 27.2633C83.5469 27.2633 83.1964 27.3671 82.9009 27.5746C82.6054 27.7822 82.3783 28.0826 82.2195 28.4758C82.0608 28.869 81.9814 29.3392 81.9814 29.8863C81.9814 30.4284 82.0632 30.8937 82.2268 31.282C82.3905 31.6703 82.6249 31.9683 82.9302 32.1759C83.2355 32.3835 83.5982 32.4873 84.0182 32.4873ZM87.9674 32.4873C88.2947 32.4873 88.5865 32.4091 88.8429 32.2528C89.0994 32.0965 89.2996 31.8791 89.4437 31.6007C89.5878 31.3223 89.6599 31.0073 89.6599 30.6556C89.6599 30.3039 89.5866 29.9888 89.4401 29.7104C89.2935 29.432 89.0908 29.2146 88.8319 29.0583C88.5731 28.902 88.28 28.8239 87.9527 28.8239C87.6255 28.8239 87.3336 28.902 87.0772 29.0583C86.8207 29.2146 86.6205 29.4308 86.4764 29.7067C86.3323 29.9827 86.2602 30.2965 86.2602 30.6482C86.2602 30.9999 86.3335 31.3162 86.48 31.5971C86.6266 31.8779 86.8293 32.0965 87.0882 32.2528C87.347 32.4091 87.6401 32.4873 87.9674 32.4873ZM87.9527 32.033C87.7232 32.033 87.518 31.9744 87.3373 31.8572C87.1566 31.7399 87.0149 31.5763 86.9123 31.3663C86.8097 31.1562 86.7585 30.9169 86.7585 30.6482C86.7585 30.3845 86.8097 30.1488 86.9123 29.9412C87.0149 29.7336 87.1566 29.5712 87.3373 29.454C87.518 29.3367 87.7232 29.2781 87.9527 29.2781C88.1872 29.2781 88.396 29.3367 88.5792 29.454C88.7623 29.5712 88.9052 29.7348 89.0078 29.9449C89.1104 30.1549 89.1617 30.3918 89.1617 30.6556C89.1617 30.9193 89.1104 31.1562 89.0078 31.3663C88.9052 31.5763 88.7623 31.7399 88.5792 31.8572C88.396 31.9744 88.1872 32.033 87.9527 32.033ZM90.8615 32.37V30.6556C90.8615 30.2355 90.936 29.9009 91.0849 29.6518C91.2339 29.4027 91.4574 29.2781 91.7553 29.2781C91.9751 29.2781 92.1534 29.3575 92.2902 29.5162C92.427 29.675 92.4953 29.9351 92.4953 30.2966V32.37H92.9936V30.4358C93.018 30.0792 93.1047 29.7971 93.2537 29.5895C93.4026 29.3819 93.6115 29.2781 93.8801 29.2781C94.0999 29.2781 94.2782 29.3575 94.415 29.5162C94.5517 29.675 94.6201 29.9351 94.6201 30.2966V32.37H95.1183V30.0767C95.1183 29.686 95.0133 29.3795 94.8033 29.1572C94.5932 28.935 94.3295 28.8239 94.012 28.8239C93.7678 28.8239 93.5528 28.8922 93.3672 29.029C93.1816 29.1658 93.0351 29.3563 92.9276 29.6005C92.8544 29.3514 92.7249 29.1597 92.5393 29.0254C92.3537 28.891 92.1363 28.8239 91.8872 28.8239C91.6625 28.8239 91.4635 28.88 91.2901 28.9924C91.1167 29.1047 90.9738 29.2659 90.8615 29.4759V28.9411H90.3632V32.37H90.8615ZM96.5104 33.8354V31.8572C96.6521 32.0574 96.8267 32.2125 97.0343 32.3224C97.2419 32.4323 97.4702 32.4873 97.7193 32.4873C98.0466 32.4873 98.3385 32.4091 98.5949 32.2528C98.8513 32.0965 99.0516 31.8804 99.1957 31.6044C99.3398 31.3284 99.4118 31.0146 99.4118 30.6629C99.4118 30.3063 99.3386 29.9888 99.192 29.7104C99.0455 29.432 98.8428 29.2146 98.5839 29.0583C98.325 28.902 98.032 28.8239 97.7047 28.8239C97.4605 28.8239 97.2358 28.8788 97.0306 28.9887C96.8255 29.0986 96.6521 29.2513 96.5104 29.4466V28.9411H96.0122V33.8354H96.5104ZM97.7193 32.033C97.4849 32.033 97.2761 31.9744 97.0929 31.8572C96.9097 31.7399 96.7669 31.5763 96.6643 31.3663C96.5617 31.1562 96.5104 30.9193 96.5104 30.6556C96.5104 30.3918 96.5617 30.1549 96.6643 29.9449C96.7669 29.7348 96.9097 29.5712 97.0929 29.454C97.2761 29.3367 97.4849 29.2781 97.7193 29.2781C97.9489 29.2781 98.1541 29.3367 98.3348 29.454C98.5155 29.5712 98.6572 29.7348 98.7597 29.9449C98.8623 30.1549 98.9136 30.3942 98.9136 30.6629C98.9136 30.9267 98.8623 31.1623 98.7597 31.3699C98.6572 31.5775 98.5155 31.7399 98.3348 31.8572C98.1541 31.9744 97.9489 32.033 97.7193 32.033ZM101.61 32.4873C101.854 32.4873 102.079 32.4323 102.284 32.3224C102.489 32.2125 102.662 32.0599 102.804 31.8645V32.37H103.302V28.9411H102.804V29.454C102.662 29.2537 102.488 29.0986 102.28 28.9887C102.073 28.8788 101.844 28.8239 101.595 28.8239C101.268 28.8239 100.976 28.902 100.72 29.0583C100.463 29.2146 100.263 29.4308 100.119 29.7067C99.9748 29.9827 99.9027 30.2965 99.9027 30.6482C99.9027 31.0048 99.976 31.3223 100.123 31.6007C100.269 31.8791 100.472 32.0965 100.731 32.2528C100.99 32.4091 101.283 32.4873 101.61 32.4873ZM101.595 32.033C101.366 32.033 101.16 31.9744 100.98 31.8572C100.799 31.7399 100.657 31.5763 100.555 31.3663C100.452 31.1562 100.401 30.9169 100.401 30.6482C100.401 30.3845 100.452 30.1488 100.555 29.9412C100.657 29.7336 100.799 29.5712 100.98 29.454C101.16 29.3367 101.366 29.2781 101.595 29.2781C101.83 29.2781 102.038 29.3367 102.222 29.454C102.405 29.5712 102.548 29.7348 102.65 29.9449C102.753 30.1549 102.804 30.3918 102.804 30.6556C102.804 30.9193 102.753 31.1562 102.65 31.3663C102.548 31.5763 102.405 31.7399 102.222 31.8572C102.038 31.9744 101.83 32.033 101.595 32.033ZM104.724 32.37V30.6556C104.724 30.2355 104.812 29.9009 104.988 29.6518C105.163 29.4027 105.427 29.2781 105.779 29.2781C106.384 29.2781 106.687 29.6176 106.687 30.2966V32.37H107.186V30.0767C107.186 29.8179 107.126 29.5932 107.006 29.4027C106.886 29.2122 106.725 29.0681 106.522 28.9704C106.32 28.8727 106.099 28.8239 105.859 28.8239C105.605 28.8239 105.382 28.8837 105.189 29.0034C104.996 29.123 104.841 29.2928 104.724 29.5126V28.9411H104.226V32.37H104.724ZM109.134 33.8354L110.988 28.9411H110.519L109.428 31.7839L108.292 28.9411H107.772L109.178 32.436L108.636 33.8354H109.134Z" fill="#143C5D"/>
<path fill-rule="evenodd" clip-rule="evenodd" d="M17.5888 5.91162V29.6823C15.7079 30.8407 13.4687 31.7949 10.9944 32.4212C8.9515 32.939 6.94389 33.1836 5.06735 33.1836C3.25805 33.1836 1.57065 32.9564 0.0859375 32.5258V8.75531C0.0867355 8.75531 0.088132 8.75591 0.0889301 8.75591C0.641756 8.91589 1.22251 9.048 1.82781 9.15064C2.38782 9.24586 2.96857 9.31583 3.56668 9.35893C4.05587 9.39542 4.55662 9.41366 5.06735 9.41366C6.94469 9.41366 8.9515 9.16828 10.9944 8.65107C13.4687 8.02399 15.7079 7.07055 17.5888 5.91162ZM14.1107 11.3687C13.9636 11.4187 13.8159 11.4677 13.6673 11.5156L14.1106 11.5154L14.1107 11.3687Z" fill="#143C5D"/>
<path fill-rule="evenodd" clip-rule="evenodd" d="M24.1045 0.620605V26.8748C22.0049 28.1542 19.5053 29.2081 16.7433 29.8998C14.4628 30.4717 12.2218 30.7419 10.1271 30.7419C8.10737 30.7419 6.22376 30.491 4.56641 30.0154V3.7614C4.5673 3.7614 4.56886 3.76206 4.56975 3.76206C5.18685 3.93875 5.83514 4.08466 6.51082 4.19803C7.13594 4.3032 7.78423 4.38048 8.45189 4.42808C8.99796 4.46838 9.55694 4.48853 10.1271 4.48853C12.2227 4.48853 14.4628 4.21751 16.7433 3.64626C19.5053 2.95367 22.0049 1.90061 24.1045 0.620605Z" fill="#143C5D"/>
</svg>
