<svg width="117" height="44" viewBox="0 0 117 44" fill="none" xmlns="http://www.w3.org/2000/svg">
<g opacity="0.8">
<path opacity="0.5" d="M21.7466 15.7062L12.6197 20.8662L3.51562 15.7062L12.6197 10.5283L21.7466 15.7062Z" fill="white"/>
<path d="M10.5904 22.0131L2.49634 26.6087V17.4175L10.5904 22.0131Z" fill="white"/>
<path opacity="0.5" d="M21.7434 28.3196L12.6347 33.4975L3.50781 28.3196L12.6347 23.1641L21.7434 28.3196Z" fill="white"/>
<path d="M0.781523 29.7442L11.8782 36.0284C12.3627 36.3017 12.9568 36.3017 13.4413 36.0284L24.5883 29.7128C25.6303 29.1216 25.6257 27.6524 24.5883 27.0656L15.6807 22.031L24.4375 17.0816C25.4795 16.4948 25.4795 15.0212 24.4375 14.4344L13.4276 8.20834C12.9431 7.93511 12.349 7.93511 11.8691 8.20834L0.781523 14.4792C0.29707 14.7524 0 15.2585 0 15.805V28.4228C0 28.9693 0.29707 29.4709 0.781523 29.7442ZM12.6186 11.0795L20.7721 15.6841L12.6186 20.2931L4.46519 15.6885L12.6186 11.0795ZM9.61593 22.0131L2.98441 25.7801V18.2462L9.61593 22.0131ZM12.6186 32.9468L4.48805 28.3422L12.6369 23.7331L20.7903 28.3377L12.6186 32.9468Z" fill="#143C5D"/>
<path d="M39.8428 17.4667C40.6609 17.4667 41.4424 17.6772 42.1234 18.0579C42.7678 18.4207 43.5859 18.3043 44.1115 17.7892C44.8702 17.0456 44.7376 15.7825 43.8007 15.245C42.6124 14.5776 41.2642 14.2148 39.8428 14.2148C35.4736 14.2148 31.9453 17.6951 31.9453 21.9951C31.9453 26.2772 35.4964 29.7754 39.8428 29.7754C41.2459 29.7754 42.6124 29.4126 43.8007 28.7452C44.7376 28.2122 44.8747 26.9491 44.1115 26.2234C43.5859 25.7083 42.7678 25.5919 42.1234 25.9547C41.4424 26.3354 40.6426 26.5459 39.8428 26.5459C37.3063 26.5459 35.2405 24.499 35.2405 21.9951C35.2405 19.5092 37.3063 17.4667 39.8428 17.4667ZM58.8965 14.2327C57.9778 14.2327 57.2374 14.9583 57.2374 15.8586V21.9369C57.2374 24.481 55.5784 26.5415 53.5492 26.5415C51.52 26.5415 49.8609 24.4766 49.8609 21.9369V15.8586C49.8609 14.9583 49.1206 14.2327 48.2019 14.2327C47.2833 14.2327 46.5429 14.9583 46.5429 15.8586V21.9369C46.5429 26.2548 49.6827 29.7754 53.5263 29.7754C57.3882 29.7754 60.5098 26.2593 60.5098 21.9369V15.8586C60.5555 14.9583 59.8151 14.2327 58.8965 14.2327ZM86.9033 14.2327C85.2443 14.2327 83.6858 14.7657 82.4381 15.6481V10.9853C82.4381 10.085 81.6977 9.35938 80.7791 9.35938C79.8605 9.35938 79.1201 10.085 79.1201 10.9853V21.9951C79.1201 26.2772 82.6118 29.7754 86.9033 29.7754C91.1949 29.7754 94.6866 26.2951 94.6866 21.9951C94.6683 17.7309 91.1766 14.2327 86.9033 14.2327ZM86.9033 26.5639C84.4262 26.5639 82.4381 24.5169 82.4381 22.013C82.4381 19.5092 84.4491 17.4622 86.9033 17.4622C89.3804 17.4622 91.3868 19.5092 91.3868 22.013C91.3731 24.5169 89.3622 26.5639 86.9033 26.5639ZM98.0412 14.2327C97.1226 14.2327 96.3822 14.9583 96.3822 15.8586V28.1674C96.3822 29.0677 97.1226 29.7933 98.0412 29.7933C98.9598 29.7933 99.7002 29.0677 99.7002 28.1674V15.8586C99.7002 14.9583 98.9598 14.2327 98.0412 14.2327ZM69.8378 14.2327C65.5463 14.2327 62.0545 17.713 62.0545 22.013C62.0545 26.2951 65.6834 29.7933 70.1486 29.7933C71.5928 29.7933 72.9959 29.4305 74.207 28.7407C75.1439 28.2256 75.2993 26.9625 74.5589 26.219C74.0333 25.7039 73.2335 25.5695 72.5891 25.9323C71.867 26.3354 71.0306 26.5639 70.1714 26.5639C68.1239 26.5639 66.3872 25.341 65.6879 23.639H75.9849C76.9035 23.639 77.6439 22.9133 77.6439 22.013C77.621 17.7309 74.1293 14.2327 69.8378 14.2327ZM65.6468 20.3871C66.2912 18.685 67.9274 17.4622 69.8378 17.4622C71.7482 17.4622 73.3889 18.685 74.0288 20.3871H65.6468ZM98.0412 9.39969C97.1226 9.39969 96.3822 10.1253 96.3822 11.0256C96.3822 11.9259 97.1226 12.6516 98.0412 12.6516C98.9598 12.6516 99.7002 11.9259 99.7002 11.0256C99.7002 10.1074 98.9598 9.39969 98.0412 9.39969ZM109.197 14.2327C104.906 14.2327 101.414 17.713 101.414 22.013C101.414 26.2951 104.906 29.7933 109.197 29.7933C110.856 29.7933 112.415 29.2603 113.681 28.36V33.0228C113.681 33.9231 114.421 34.6487 115.34 34.6487C116.258 34.6487 116.999 33.9231 116.999 33.0228V22.013C116.981 17.7309 113.489 14.2327 109.197 14.2327ZM109.197 26.5639C106.72 26.5639 104.714 24.5169 104.714 22.013C104.714 19.5092 106.725 17.4622 109.197 17.4622C111.674 17.4622 113.681 19.5092 113.681 22.013C113.681 24.5169 111.674 26.5639 109.197 26.5639Z" fill="#143C5D"/>
</g>
</svg>
