<svg width="135" height="34" viewBox="0 0 135 34" fill="none" xmlns="http://www.w3.org/2000/svg">
<path fill-rule="evenodd" clip-rule="evenodd" d="M0.0153809 15.5449V21.748L17.6709 7.15665V0.953613L0.0153809 15.5449Z" fill="#143C5D"/>
<path fill-rule="evenodd" clip-rule="evenodd" d="M0.0151367 27.7077V33.9106L17.6707 19.3193V13.1162L0.0151367 27.7077Z" fill="#143C5D"/>
<path fill-rule="evenodd" clip-rule="evenodd" d="M7.86304 15.5449V21.748L25.5186 7.15665V0.953613L7.86304 15.5449Z" fill="#143C5D"/>
<path fill-rule="evenodd" clip-rule="evenodd" d="M7.86304 27.7077V33.9106L25.5186 19.3193V13.1162L7.86304 27.7077Z" fill="#143C5D"/>
<path d="M46.0784 22.1075C47.1321 22.1075 48.2049 22.0069 49.2969 21.8057C50.3889 21.6046 51.5144 21.3029 52.6734 20.9006V14.0326L53.1332 13.6303L54.843 13.4866V12.0354H46.2508V13.4866L48.4348 13.6303L48.8946 14.0326V20.0385C48.5306 20.0672 48.2097 20.0888 47.9319 20.1031C47.6541 20.1175 47.4386 20.1247 47.2853 20.1247C44.996 20.1247 43.2072 19.3847 41.9188 17.9048C40.6305 16.4249 39.9863 14.3726 39.9863 11.748C39.9863 9.19052 40.6161 7.18137 41.8757 5.72061C43.1354 4.25985 44.8667 3.52947 47.0698 3.52947C47.5104 3.52947 47.9319 3.56779 48.3342 3.64442C48.7365 3.72105 49.1293 3.84078 49.5124 4.00362L49.9578 4.53524L50.5182 7.65313H52.6734V2.65302C51.5814 2.32734 50.5158 2.08308 49.4765 1.92024C48.4372 1.7574 47.429 1.67598 46.452 1.67598C43.2144 1.67598 40.6161 2.59315 38.6573 4.42748C36.6984 6.26181 35.719 8.702 35.719 11.748C35.719 14.8228 36.6769 17.3181 38.5926 19.2338C40.5084 21.1496 43.0036 22.1075 46.0784 22.1075ZM62.9284 21.9782C65.2273 21.9782 67.0712 21.3077 68.4602 19.9666C69.8491 18.6256 70.5435 16.8535 70.5435 14.6504C70.5435 12.3228 69.8778 10.4765 68.5464 9.11149C67.2149 7.74652 65.4189 7.06403 63.1583 7.06403C60.8594 7.06403 59.0155 7.75131 57.6266 9.12586C56.2377 10.5004 55.5432 12.3228 55.5432 14.5929C55.5432 16.8056 56.2209 18.5897 57.5763 19.9451C58.9317 21.3005 60.7157 21.9782 62.9284 21.9782ZM63.0146 20.4264C61.9514 20.4264 61.1204 19.9044 60.5218 18.8603C59.9231 17.8162 59.6238 16.3554 59.6238 14.478C59.6238 12.6293 59.9255 11.1925 60.5289 10.1676C61.1324 9.14263 61.9705 8.63016 63.0434 8.63016C64.1258 8.63016 64.9711 9.1522 65.5793 10.1963C66.1876 11.2404 66.4917 12.6963 66.4917 14.5642C66.4917 16.4416 66.19 17.888 65.5865 18.9034C64.9831 19.9187 64.1258 20.4264 63.0146 20.4264ZM76.9048 21.7483C78.0638 21.7483 79.0528 21.6932 79.8718 21.583C80.6908 21.4729 81.3685 21.3029 81.9049 21.073C83.4184 20.3929 84.5702 19.4326 85.3604 18.1922C86.1507 16.9517 86.5458 15.479 86.5458 13.774C86.5458 11.8103 86.0046 10.2059 84.9222 8.96063C83.8398 7.71539 82.4509 7.09277 80.7555 7.09277C80.1137 7.09277 79.4432 7.20053 78.7439 7.41605C78.0447 7.63158 77.2927 7.96444 76.4881 8.41464V0.00927734H75.08L70.7121 1.38862V2.53807H72.8386V21.6908L76.1002 21.7483H76.9048ZM77.422 20.1821C77.173 20.1821 76.9814 20.1798 76.8473 20.175C76.7132 20.1702 76.5935 20.163 76.4881 20.1534V9.62156C76.8713 9.54493 77.2137 9.48746 77.5154 9.44915C77.8172 9.41083 78.0926 9.39167 78.3416 9.39167C79.7114 9.39167 80.765 9.83469 81.5026 10.7207C82.2402 11.6068 82.6089 12.8783 82.6089 14.5355C82.6089 16.4704 82.1899 17.8952 81.3517 18.81C80.5136 19.7248 79.2037 20.1821 77.422 20.1821ZM94.933 21.9782C97.2319 21.9782 99.0758 21.3077 100.465 19.9666C101.854 18.6256 102.548 16.8535 102.548 14.6504C102.548 12.3228 101.882 10.4765 100.551 9.11149C99.2195 7.74652 97.4235 7.06403 95.1629 7.06403C92.864 7.06403 91.0201 7.75131 89.6311 9.12586C88.2422 10.5004 87.5478 12.3228 87.5478 14.5929C87.5478 16.8056 88.2255 18.5897 89.5808 19.9451C90.9362 21.3005 92.7203 21.9782 94.933 21.9782ZM95.0192 20.4264C93.9559 20.4264 93.125 19.9044 92.5263 18.8603C91.9276 17.8162 91.6283 16.3554 91.6283 14.478C91.6283 12.6293 91.93 11.1925 92.5335 10.1676C93.137 9.14263 93.9751 8.63016 95.0479 8.63016C96.1303 8.63016 96.9757 9.1522 97.5839 10.1963C98.1922 11.2404 98.4963 12.6963 98.4963 14.5642C98.4963 16.4416 98.1945 17.888 97.5911 18.9034C96.9876 19.9187 96.1303 20.4264 95.0192 20.4264ZM110.634 21.7483V20.4264L109.34 20.3115L108.938 19.866V10.1532C109.513 9.99035 110.032 9.86582 110.497 9.77961C110.962 9.6934 111.371 9.6503 111.726 9.6503C112.645 9.6503 113.316 9.90653 113.737 10.419C114.159 10.9315 114.369 11.7337 114.369 12.8257V19.866L113.967 20.3115L112.703 20.4264V21.7483H119.901V20.4264L118.349 20.3115L117.961 19.866V11.9779C117.961 10.3304 117.631 9.10431 116.97 8.29969C116.309 7.49508 115.308 7.09277 113.967 7.09277C113.363 7.09277 112.655 7.23645 111.84 7.52381C111.026 7.81118 110.059 8.26617 108.938 8.88879V7.15024H107.516L103.277 8.52958V9.70777H105.289V19.866L104.872 20.3115L103.363 20.4264V21.7483H110.634ZM124.308 22.0069C125.055 22.0069 125.836 21.8536 126.65 21.5471C127.464 21.2406 128.37 20.7473 129.366 20.0672L129.754 21.7483H134.998V20.4551L133.432 20.3115L133.044 19.8948V12.2797C133.044 10.3543 132.632 9.00373 131.808 8.22785C130.985 7.45197 129.562 7.06403 127.541 7.06403C125.74 7.06403 124.222 7.40408 122.986 8.08417C121.751 8.76426 121.133 9.56409 121.133 10.4837C121.133 10.8572 121.241 11.1302 121.456 11.3026C121.672 11.4751 122.014 11.5613 122.483 11.5613H125.199V8.80258C125.467 8.74511 125.716 8.702 125.946 8.67327C126.176 8.64453 126.396 8.63016 126.607 8.63016C127.575 8.63016 128.283 8.87442 128.734 9.36294C129.184 9.85145 129.409 10.6273 129.409 11.6906V12.567C125.549 13.4387 123.092 14.2481 122.038 14.9952C120.984 15.7424 120.458 16.8056 120.458 18.185C120.458 19.3057 120.817 20.2229 121.535 20.9365C122.254 21.6501 123.178 22.0069 124.308 22.0069ZM126.521 19.7511C125.85 19.7511 125.319 19.5523 124.926 19.1548C124.533 18.7573 124.337 18.2185 124.337 17.5384C124.337 16.6667 124.691 15.9771 125.4 15.4694C126.109 14.9617 127.431 14.4924 129.366 14.0613V18.8603C128.791 19.1572 128.267 19.3799 127.792 19.5284C127.318 19.6769 126.894 19.7511 126.521 19.7511Z" fill="#143C5D"/>
<path d="M39.1939 32.3421V32.0041L38.6347 31.9639L38.502 31.8472V29.9926L40.2158 27.2489L40.7187 27.1443V26.8144H39.037V27.1443L39.5399 27.2328L39.6164 27.3494L38.2324 29.5501L36.9692 27.2851L37.0537 27.1925L37.5244 27.1443V26.8144H35.6094V27.1443L36.1123 27.2247L37.7537 30.1012V31.8472L37.6209 31.9639L37.0617 32.0041V32.3421H39.1939ZM41.6992 32.4145C42.2571 32.4145 42.7164 32.2221 43.0772 31.8372C43.4379 31.4523 43.6183 30.9581 43.6183 30.3547C43.6183 29.7512 43.4386 29.257 43.0792 28.8722C42.7198 28.4873 42.2598 28.2949 41.6992 28.2949C41.136 28.2949 40.6767 28.4866 40.3213 28.8702C39.966 29.2537 39.7883 29.7485 39.7883 30.3547C39.7883 30.9608 39.9673 31.4557 40.3254 31.8392C40.6834 32.2227 41.1414 32.4145 41.6992 32.4145ZM41.6992 32.0605C41.3586 32.0605 41.0837 31.9056 40.8745 31.5958C40.6653 31.286 40.5607 30.8723 40.5607 30.3547C40.5607 29.837 40.6646 29.4233 40.8725 29.1136C41.0804 28.8038 41.3559 28.6489 41.6992 28.6489C42.0425 28.6489 42.3195 28.8044 42.53 29.1156C42.7406 29.4267 42.8458 29.8397 42.8458 30.3547C42.8458 30.875 42.7412 31.2894 42.532 31.5978C42.3228 31.9062 42.0452 32.0605 41.6992 32.0605ZM45.5523 32.4225C45.7481 32.4225 45.9553 32.3783 46.1738 32.2898C46.3924 32.2013 46.6305 32.0645 46.8879 31.8794V32.3421H48.1069V32.0444L47.7207 32.0041L47.5719 31.8714V28.2949H47.2581L46.3006 28.6006V28.8581H46.8879V31.6501C46.7163 31.7333 46.552 31.7949 46.3951 31.8352C46.2382 31.8754 46.0833 31.8955 45.9305 31.8955C45.6569 31.8955 45.4557 31.8251 45.327 31.6843C45.1982 31.5435 45.1339 31.3229 45.1339 31.0225V28.2949H44.8201L43.8626 28.6006V28.8581H44.45V31.1633C44.45 31.571 44.5445 31.8828 44.7336 32.0987C44.9227 32.3146 45.1956 32.4225 45.5523 32.4225ZM50.2944 32.3421V32.0444L49.7191 32.0041L49.5783 31.8714V29.5179C49.7526 29.3114 49.9129 29.1592 50.0591 29.0613C50.2052 28.9634 50.344 28.9144 50.4755 28.9144C50.5613 28.9144 50.6397 28.9312 50.7108 28.9647C50.7819 28.9982 50.8442 29.0472 50.8979 29.1115H51.1594V28.4035C51.0736 28.3659 50.9904 28.3384 50.9099 28.321C50.8295 28.3036 50.7477 28.2949 50.6645 28.2949C50.6082 28.2949 50.566 28.2962 50.5378 28.2989C50.5097 28.3016 50.4835 28.3069 50.4594 28.315C50.2984 28.4437 50.1449 28.5745 49.9987 28.7072C49.8526 28.84 49.7124 28.9748 49.5783 29.1115V28.3391H49.2645L48.307 28.6328V28.8903H48.8863V31.8714L48.7455 32.0041L48.307 32.0444V32.3421H50.2944ZM56.4838 32.3421V32.0041L55.9286 31.9639L55.7918 31.8472V27.1925H57.051L57.1677 27.3173L57.2804 28.0816H57.735V26.8144H53.0803V28.0816H53.5309L53.6475 27.3173L53.7642 27.1925H55.0234V31.8472L54.8826 31.9639L54.3314 32.0041V32.3421H56.4838ZM59.2265 32.3421V32.0444L58.6512 32.0041L58.5104 31.8714V29.5179C58.6847 29.3114 58.8449 29.1592 58.9911 29.0613C59.1373 28.9634 59.2761 28.9144 59.4075 28.9144C59.4933 28.9144 59.5718 28.9312 59.6429 28.9647C59.7139 28.9982 59.7763 29.0472 59.8299 29.1115H60.0914V28.4035C60.0056 28.3659 59.9225 28.3384 59.842 28.321C59.7615 28.3036 59.6797 28.2949 59.5966 28.2949C59.5403 28.2949 59.498 28.2962 59.4699 28.2989C59.4417 28.3016 59.4155 28.3069 59.3914 28.315C59.2305 28.4437 59.0769 28.5745 58.9308 28.7072C58.7846 28.84 58.6445 28.9748 58.5104 29.1115V28.3391H58.1966L57.2391 28.6328V28.8903H57.8184V31.8714L57.6776 32.0041L57.2391 32.0444V32.3421H59.2265ZM61.768 32.4225C61.9638 32.4225 62.171 32.3783 62.3895 32.2898C62.6081 32.2013 62.8462 32.0645 63.1036 31.8794V32.3421H64.3226V32.0444L63.9364 32.0041L63.7876 31.8714V28.2949H63.4738L62.5163 28.6006V28.8581H63.1036V31.6501C62.932 31.7333 62.7677 31.7949 62.6108 31.8352C62.4539 31.8754 62.299 31.8955 62.1461 31.8955C61.8726 31.8955 61.6714 31.8251 61.5427 31.6843C61.4139 31.5435 61.3496 31.3229 61.3496 31.0225V28.2949H61.0358L60.0783 28.6006V28.8581H60.6657V31.1633C60.6657 31.571 60.7602 31.8828 60.9493 32.0987C61.1384 32.3146 61.4113 32.4225 61.768 32.4225ZM65.6934 32.4145C66.1762 32.4145 66.5537 32.3052 66.8259 32.0866C67.0981 31.868 67.2343 31.5656 67.2343 31.1794C67.2343 31.0319 67.2074 30.8971 67.1538 30.7751C67.1002 30.6531 67.0224 30.5518 66.9205 30.4713C66.781 30.356 66.5557 30.2273 66.2446 30.0851C66.1561 30.0449 66.0904 30.0141 66.0475 29.9926C65.7739 29.8612 65.5888 29.7418 65.4923 29.6345C65.3957 29.5273 65.3474 29.3972 65.3474 29.2443C65.3474 29.0566 65.4078 28.9104 65.5285 28.8058C65.6492 28.7012 65.8168 28.6489 66.0314 28.6489C66.1306 28.6489 66.2298 28.6636 66.3291 28.6931C66.4283 28.7226 66.5329 28.7669 66.6429 28.8259L66.7072 29.4093H67.1136V28.4759C66.9741 28.4169 66.8246 28.372 66.665 28.3411C66.5054 28.3103 66.3331 28.2949 66.148 28.2949C65.684 28.2949 65.3246 28.3954 65.0698 28.5966C64.8151 28.7977 64.6877 29.082 64.6877 29.4495C64.6877 29.6909 64.7621 29.8934 64.9109 30.057C65.0598 30.2206 65.3407 30.3949 65.7538 30.58C66.1185 30.7463 66.3492 30.8837 66.4457 30.9923C66.5423 31.101 66.5906 31.2384 66.5906 31.4047C66.5906 31.6032 66.5202 31.7634 66.3794 31.8855C66.2386 32.0075 66.0515 32.0685 65.8181 32.0685C65.7001 32.0685 65.5828 32.0524 65.4661 32.0202C65.3494 31.988 65.2335 31.9384 65.1181 31.8714L65.0175 31.1714H64.6233V32.2415C64.7762 32.3005 64.9431 32.3441 65.1242 32.3723C65.3052 32.4004 65.495 32.4145 65.6934 32.4145ZM68.8786 32.3662C69.0476 32.3662 69.2233 32.3508 69.4057 32.32C69.588 32.2891 69.7731 32.2442 69.9608 32.1852V31.8794C69.8589 31.9036 69.7604 31.921 69.6651 31.9317C69.5699 31.9425 69.4781 31.9478 69.3896 31.9478C69.1321 31.9478 68.9537 31.8868 68.8545 31.7648C68.7553 31.6427 68.7056 31.4034 68.7056 31.0466V28.8742H69.9608V28.488H68.7056V27.6109H68.3999L68.0459 28.3793L67.5027 28.6167V28.8742H68.0217V31.5334C68.0217 31.8499 68.0854 32.0678 68.2128 32.1872C68.3402 32.3065 68.5621 32.3662 68.8786 32.3662ZM71.915 32.4145C72.1805 32.4145 72.4447 32.3729 72.7075 32.2898C72.9704 32.2066 73.2238 32.0846 73.4679 31.9237V31.4691C73.2211 31.6327 72.9925 31.7534 72.782 31.8311C72.5714 31.9089 72.3683 31.9478 72.1725 31.9478C71.7487 31.9478 71.4121 31.797 71.1627 31.4952C70.9132 31.1935 70.7885 30.7838 70.7885 30.2662V30.1736H73.4558C73.4612 30.1415 73.4645 30.1079 73.4659 30.0731C73.4672 30.0382 73.4679 29.9872 73.4679 29.9202C73.4679 29.4186 73.3345 29.0224 73.0676 28.7314C72.8007 28.4404 72.4393 28.2949 71.9834 28.2949C71.4255 28.2949 70.9689 28.49 70.6135 28.8802C70.2581 29.2705 70.0805 29.774 70.0805 30.3909C70.0805 30.9917 70.2501 31.4791 70.5894 31.8533C70.9287 32.2274 71.3705 32.4145 71.915 32.4145ZM72.7317 29.8277H70.8288C70.8529 29.4924 70.9649 29.2155 71.1647 28.9969C71.3645 28.7783 71.6012 28.669 71.8748 28.669C72.1537 28.669 72.3662 28.7575 72.5124 28.9345C72.6586 29.1115 72.7317 29.3663 72.7317 29.6989V29.8277ZM75.4341 32.4145C75.6567 32.4145 75.8699 32.3743 76.0738 32.2938C76.2776 32.2133 76.4868 32.0873 76.7014 31.9156V32.3421H77.9204V32.0444L77.5261 32.0041L77.3853 31.8714V26.2793H77.0755L76.0698 26.573V26.8305H76.7014V28.3793C76.57 28.3498 76.4426 28.327 76.3192 28.311C76.1958 28.2949 76.0791 28.2868 75.9692 28.2868C75.3389 28.2868 74.8273 28.49 74.4344 28.8963C74.0415 29.3026 73.845 29.833 73.845 30.4874C73.845 31.0507 73.9945 31.5127 74.2936 31.8734C74.5926 32.2341 74.9728 32.4145 75.4341 32.4145ZM75.8042 31.8955C75.4287 31.8955 75.129 31.756 74.9051 31.4771C74.6811 31.1982 74.5691 30.8214 74.5691 30.3466C74.5691 29.837 74.6986 29.4267 74.9574 29.1156C75.2162 28.8044 75.5561 28.6489 75.9772 28.6489C76.0711 28.6489 76.1777 28.6603 76.2971 28.6831C76.4164 28.7059 76.5512 28.7387 76.7014 28.7817V31.6099C76.5458 31.7064 76.3936 31.7782 76.2448 31.8251C76.0959 31.872 75.9491 31.8955 75.8042 31.8955ZM83.1241 32.4427C83.3977 32.4427 83.6752 32.4178 83.9569 32.3682C84.2385 32.3186 84.5147 32.2469 84.7856 32.153V30.8495H84.3431L84.1419 31.7668L84.0132 31.8955C83.8925 31.9331 83.7725 31.9606 83.6531 31.978C83.5338 31.9954 83.4151 32.0041 83.2971 32.0041C82.6239 32.0041 82.0969 31.7835 81.716 31.3423C81.3352 30.9011 81.1447 30.293 81.1447 29.5179C81.1447 28.7884 81.3271 28.2117 81.6919 27.788C82.0566 27.3642 82.5501 27.1523 83.1724 27.1523C83.3279 27.1523 83.4808 27.1697 83.631 27.2046C83.7812 27.2395 83.9354 27.2931 84.0936 27.3655L84.2023 27.5144L84.327 28.2627H84.7856V26.9954C84.4906 26.9015 84.207 26.8311 83.9347 26.7842C83.6625 26.7373 83.403 26.7138 83.1563 26.7138C82.298 26.7138 81.6067 26.976 81.0824 27.5003C80.558 28.0246 80.2959 28.7159 80.2959 29.5742C80.2959 30.1106 80.4226 30.6048 80.676 31.0567C80.9295 31.5086 81.2775 31.8606 81.72 32.1128C81.9131 32.22 82.1277 32.3018 82.3637 32.3582C82.5997 32.4145 82.8532 32.4427 83.1241 32.4427ZM86.776 32.4225C86.9718 32.4225 87.1789 32.3783 87.3975 32.2898C87.6161 32.2013 87.8542 32.0645 88.1116 31.8794V32.3421H89.3306V32.0444L88.9444 32.0041L88.7956 31.8714V28.2949H88.4818L87.5243 28.6006V28.8581H88.1116V31.6501C87.94 31.7333 87.7757 31.7949 87.6188 31.8352C87.4619 31.8754 87.307 31.8955 87.1541 31.8955C86.8806 31.8955 86.6794 31.8251 86.5507 31.6843C86.4219 31.5435 86.3576 31.3229 86.3576 31.0225V28.2949H86.0438L85.0863 28.6006V28.8581H85.6736V31.1633C85.6736 31.571 85.7682 31.8828 85.9573 32.0987C86.1464 32.3146 86.4193 32.4225 86.776 32.4225ZM91.5181 32.3421V32.0444L90.9428 32.0041L90.802 31.8714V29.5179C90.9763 29.3114 91.1366 29.1592 91.2828 29.0613C91.4289 28.9634 91.5677 28.9144 91.6991 28.9144C91.785 28.9144 91.8634 28.9312 91.9345 28.9647C92.0056 28.9982 92.0679 29.0472 92.1216 29.1115H92.3831V28.4035C92.2972 28.3659 92.2141 28.3384 92.1336 28.321C92.0532 28.3036 91.9714 28.2949 91.8882 28.2949C91.8319 28.2949 91.7897 28.2962 91.7615 28.2989C91.7333 28.3016 91.7072 28.3069 91.6831 28.315C91.5221 28.4437 91.3686 28.5745 91.2224 28.7072C91.0762 28.84 90.9361 28.9748 90.802 29.1115V28.3391H90.4882L89.5307 28.6328V28.8903H90.11V31.8714L89.9692 32.0041L89.5307 32.0444V32.3421H91.5181ZM94.3895 32.3421V32.0444L93.8142 32.0041L93.6734 31.8714V29.5179C93.8477 29.3114 94.008 29.1592 94.1542 29.0613C94.3003 28.9634 94.4391 28.9144 94.5706 28.9144C94.6564 28.9144 94.7348 28.9312 94.8059 28.9647C94.877 28.9982 94.9393 29.0472 94.993 29.1115H95.2545V28.4035C95.1687 28.3659 95.0855 28.3384 95.005 28.321C94.9246 28.3036 94.8428 28.2949 94.7596 28.2949C94.7033 28.2949 94.6611 28.2962 94.6329 28.2989C94.6048 28.3016 94.5786 28.3069 94.5545 28.315C94.3935 28.4437 94.24 28.5745 94.0938 28.7072C93.9476 28.84 93.8075 28.9748 93.6734 29.1115V28.3391H93.3596L92.4021 28.6328V28.8903H92.9814V31.8714L92.8406 32.0041L92.4021 32.0444V32.3421H94.3895ZM96.2954 27.4581C96.4295 27.4581 96.5428 27.4125 96.6353 27.3213C96.7279 27.2301 96.7741 27.1188 96.7741 26.9874C96.7741 26.8559 96.7279 26.7433 96.6353 26.6494C96.5428 26.5555 96.4295 26.5086 96.2954 26.5086C96.164 26.5086 96.052 26.5549 95.9595 26.6474C95.8669 26.7399 95.8207 26.8533 95.8207 26.9874C95.8207 27.1188 95.8669 27.2301 95.9595 27.3213C96.052 27.4125 96.164 27.4581 96.2954 27.4581ZM97.1684 32.3421V32.0444L96.7259 32.0041L96.585 31.8714V28.3391H96.2632L95.3178 28.6328V28.8903H95.8931V31.8714L95.7523 32.0041L95.3178 32.0444V32.3421H97.1684ZM99.199 32.4145C99.4645 32.4145 99.7287 32.3729 99.9915 32.2898C100.254 32.2066 100.508 32.0846 100.752 31.9237V31.4691C100.505 31.6327 100.276 31.7534 100.066 31.8311C99.8554 31.9089 99.6522 31.9478 99.4564 31.9478C99.0327 31.9478 98.6961 31.797 98.4467 31.4952C98.1972 31.1935 98.0725 30.7838 98.0725 30.2662V30.1736H100.74C100.745 30.1415 100.749 30.1079 100.75 30.0731C100.751 30.0382 100.752 29.9872 100.752 29.9202C100.752 29.4186 100.618 29.0224 100.352 28.7314C100.085 28.4404 99.7233 28.2949 99.2674 28.2949C98.7095 28.2949 98.2529 28.49 97.8975 28.8802C97.5421 29.2705 97.3644 29.774 97.3644 30.3909C97.3644 30.9917 97.5341 31.4791 97.8734 31.8533C98.2126 32.2274 98.6545 32.4145 99.199 32.4145ZM100.016 29.8277H98.1127C98.1369 29.4924 98.2489 29.2155 98.4487 28.9969C98.6485 28.7783 98.8852 28.669 99.1587 28.669C99.4377 28.669 99.6502 28.7575 99.7964 28.9345C99.9426 29.1115 100.016 29.3663 100.016 29.6989V29.8277ZM103.064 32.3421V32.0444L102.489 32.0041L102.348 31.8714V29.5179C102.522 29.3114 102.683 29.1592 102.829 29.0613C102.975 28.9634 103.114 28.9144 103.245 28.9144C103.331 28.9144 103.409 28.9312 103.48 28.9647C103.552 28.9982 103.614 29.0472 103.668 29.1115H103.929V28.4035C103.843 28.3659 103.76 28.3384 103.68 28.321C103.599 28.3036 103.517 28.2949 103.434 28.2949C103.378 28.2949 103.336 28.2962 103.307 28.2989C103.279 28.3016 103.253 28.3069 103.229 28.315C103.068 28.4437 102.915 28.5745 102.768 28.7072C102.622 28.84 102.482 28.9748 102.348 29.1115V28.3391H102.034L101.077 28.6328V28.8903H101.656V31.8714L101.515 32.0041L101.077 32.0444V32.3421H103.064Z" fill="#143C5D"/>
</svg>
