<svg width="250" height="40" viewBox="0 0 250 40" fill="none" xmlns="http://www.w3.org/2000/svg">
<g clip-path="url(#clip0_2002_445)">
<path d="M73.1199 26.4912C73.0254 26.4912 72.943 26.5857 72.8723 26.7741C72.8247 26.9393 72.6716 27.1278 72.4124 27.3399C72.1527 27.5521 71.905 27.6582 71.6696 27.6582C71.1268 27.6582 70.7084 27.3515 70.4138 26.7388C70.1187 26.126 69.9125 25.3364 69.7948 24.3694C69.6765 23.403 69.618 22.4013 69.618 21.3636C69.618 20.3264 69.6533 19.3247 69.7241 18.3577C69.791 17.4434 69.847 16.698 69.8932 16.121C70.6984 16.0441 71.2773 15.8786 71.6639 15.6124C71.9024 15.4275 72.0233 15.2327 72.0233 15.0336C72.0233 14.9159 71.9526 14.8568 71.8111 14.8568C71.6696 14.8568 71.4927 14.9043 71.2805 14.9982C70.9975 15.1165 70.5609 15.175 69.9717 15.175C70.1132 13.4306 70.29 11.757 70.5023 10.1535C70.7145 8.55054 70.9146 7.17745 71.1036 6.03368C71.2921 4.89046 71.422 4.13016 71.4927 3.75276C71.4927 3.39913 71.2683 3.14606 70.8206 2.99245C70.3724 2.8394 69.8418 2.7626 69.2289 2.7626C68.9929 2.78636 68.863 2.83332 68.8398 2.90405C68.6275 4.03567 68.433 5.30321 68.2561 6.70558C68.0792 8.1085 67.9256 9.54071 67.7963 11.0022C67.6691 12.4333 67.5708 13.7957 67.5003 15.0907C67.475 15.0893 67.4502 15.088 67.4248 15.0866C66.7881 15.0513 66.163 15.022 65.5501 14.9982C65.1256 14.975 64.6951 14.9573 64.259 14.9452C63.8223 14.9336 63.4039 14.9275 63.0032 14.9275C62.555 14.9275 62.1012 14.9336 61.6414 14.9452C61.1815 14.9573 60.7272 14.975 60.2795 14.9982C60.2557 13.466 60.1789 12.1106 60.0496 10.9315C59.9197 9.75289 59.8313 8.93954 59.7843 8.49142C60.421 8.02009 60.9394 7.3482 61.3407 6.47572C61.7414 5.6038 61.942 4.80206 61.942 4.07104C61.942 3.59971 61.8475 3.21072 61.6591 2.90406C61.47 2.59794 61.1754 2.44434 60.7747 2.44434C60.2557 2.44434 59.8666 2.63884 59.6074 3.02783C59.3477 3.41682 59.1708 3.91191 59.0768 4.51308C58.9823 5.11425 58.9353 5.7215 58.9353 6.33428C58.9353 6.7824 58.9409 7.20067 58.953 7.58967C58.9646 7.97866 58.9823 8.31461 59.0061 8.59751C58.3694 9.06939 57.5381 9.56448 56.5123 10.0828C55.4865 10.6016 54.3661 11.0436 53.1519 11.4089C51.937 11.7747 50.7167 11.957 49.4908 11.957C48.382 11.957 47.5452 11.7216 46.9793 11.2497C46.4133 10.7784 46.1303 10.2364 46.1303 9.62305C46.1303 8.86882 46.5548 8.14995 47.4037 7.4659C48.2527 6.7824 49.5377 6.44037 51.2594 6.44037C51.7546 6.44037 52.3913 6.48181 53.1695 6.56414C53.9477 6.64702 54.5961 6.75864 55.1151 6.90009C55.1858 6.92385 55.2798 6.93545 55.398 6.93545C55.681 6.93545 55.8225 6.86472 55.8225 6.72327C55.8225 6.62934 55.7042 6.51109 55.4688 6.36964C55.0205 6.1105 54.3545 5.86295 53.4702 5.62702C52.5859 5.39163 51.5894 5.27339 50.4812 5.27339C48.9718 5.27339 47.7099 5.49772 46.6963 5.94528C45.6821 6.3934 44.9215 6.95921 44.4147 7.64271C43.9079 8.32676 43.6542 9.02187 43.6542 9.72913C43.6542 10.6016 44.0378 11.368 44.8038 12.0277C45.5699 12.688 46.7079 13.0179 48.2173 13.0179C49.3493 13.0179 50.5696 12.8648 51.8784 12.5582C53.1872 12.2521 54.4723 11.81 55.7341 11.2321C56.9954 10.6546 58.0864 9.96506 59.0061 9.16332C59.0061 9.82361 58.9884 10.6662 58.953 11.6918C58.9177 12.7173 58.8171 13.855 58.6524 15.1043C56.247 15.2933 53.9886 15.7585 51.8784 16.5012C49.7677 17.2438 47.8636 18.4052 46.1657 19.9844C45.293 20.7862 44.6391 21.6763 44.2025 22.6543C43.7664 23.6329 43.5481 24.5938 43.5481 25.5364C43.5481 26.4559 43.7603 27.3046 44.1848 28.0826C44.6093 28.8605 45.2515 29.4849 46.1126 29.9568C46.9732 30.4281 48.0405 30.6641 49.3139 30.6641C50.6813 30.6641 51.9608 30.3988 53.1519 29.8684C54.3424 29.3379 55.4036 28.613 56.3354 27.6936C57.2667 26.7741 58.0156 25.7486 58.5816 24.617C59.1946 23.3914 59.6251 22.0415 59.8727 20.5679C60.1203 19.0948 60.2558 17.6388 60.2795 16.2006C61.1047 16.1536 61.9244 16.1243 62.7379 16.1122C63.5515 16.1006 64.3474 16.0945 65.1256 16.0945C65.8093 16.0945 66.4991 16.1066 67.1949 16.1298C67.2731 16.1325 67.3495 16.1345 67.4269 16.1368L67.4249 16.1652C67.3541 17.2498 67.3188 18.4406 67.3188 19.7369C67.3188 20.8215 67.3718 21.894 67.4779 22.9549C67.5841 24.0158 67.7725 24.9767 68.0439 25.837C68.3147 26.6979 68.7038 27.3808 69.2112 27.8881C69.718 28.3947 70.3724 28.6484 71.1744 28.6484C71.7636 28.6484 72.271 28.5008 72.6954 28.2063C73.1199 27.9113 73.3322 27.4814 73.3322 26.9156V26.8802C73.3322 26.6211 73.2614 26.4912 73.1199 26.4912ZM57.768 19.5777C57.4613 20.674 57.0722 21.7172 56.6007 22.7074C56.011 23.9572 55.3035 25.1121 54.4783 26.173C53.6526 27.2338 52.7152 28.0881 51.6662 28.7368C50.6166 29.3849 49.4553 29.7093 48.1819 29.7093C47.1439 29.7093 46.4133 29.444 45.9888 28.9136C45.5643 28.3831 45.3521 27.7289 45.3521 26.9509C45.3521 26.2205 45.4875 25.448 45.7589 24.6347C46.0297 23.8213 46.3657 23.061 46.767 22.3537C47.1677 21.6465 47.5568 21.1044 47.9343 20.727C49.3255 19.3125 50.941 18.287 52.7804 17.6504C54.6198 17.0139 56.5178 16.5896 58.4755 16.3774C58.3102 17.4151 58.0742 18.4815 57.768 19.5777Z" fill="#C44E4F"/>
<path d="M80.8766 11.8155C80.393 11.2497 79.7148 10.9668 78.8426 10.9668C77.5692 10.9668 76.5434 11.3027 75.7652 11.9746C74.987 12.6465 74.3972 13.4837 73.9965 14.4854C73.5953 15.4877 73.336 16.4834 73.2183 17.4736C73.1946 17.851 73.1592 18.293 73.1122 18.7997C73.0647 19.307 73.0415 19.8551 73.0415 20.4441C73.0415 21.2221 73.0945 22.0178 73.2006 22.8311C73.3068 23.6445 73.4952 24.3932 73.7666 25.0767C74.0374 25.7607 74.4265 26.3144 74.9339 26.7387C75.4407 27.1631 76.0951 27.3753 76.8971 27.3753C77.7223 27.3753 78.4475 27.0802 79.0726 26.4912C79.6971 25.9022 80.2222 25.1888 80.6467 24.3517C81.0711 23.5152 81.3773 22.7311 81.5664 22.0001C81.7311 21.4343 81.8786 20.6861 82.0085 19.7545C82.1379 18.8235 82.2031 17.8626 82.2031 16.8724C82.2031 15.8823 82.1025 14.9335 81.9024 14.0257C81.7018 13.1184 81.3596 12.3813 80.8766 11.8155ZM80.912 20.1258C80.8528 20.6916 80.776 21.1635 80.682 21.5404C80.5875 21.9647 80.4223 22.4836 80.1868 23.0963C79.9508 23.7097 79.6617 24.2517 79.3202 24.723C78.978 25.1949 78.5597 25.4303 78.0644 25.4303C77.5217 25.4303 77.1094 25.1595 76.8264 24.6169C76.5434 24.0749 76.3488 23.403 76.2427 22.6012C76.1366 21.8 76.0835 20.9983 76.0835 20.1966C76.0835 19.56 76.1068 18.9765 76.1543 18.4461C76.2013 17.9156 76.2366 17.5211 76.2604 17.2614C76.2836 17.026 76.3604 16.6072 76.4903 16.006C76.6197 15.4049 76.7965 14.7744 77.0209 14.1141C77.2448 13.4544 77.5217 12.8886 77.8522 12.4167C78.1822 11.9453 78.5597 11.7094 78.9841 11.7094C79.1964 11.7094 79.4202 11.7923 79.6562 11.957C79.5617 12.0277 79.444 12.1459 79.3025 12.3106C79.161 12.4758 79.0902 12.6526 79.0902 12.841C79.0902 13.1007 79.2317 13.3245 79.5147 13.5129C80.0807 13.8903 80.4698 14.5445 80.682 15.4756C80.8943 16.4072 81.0004 17.3559 81.0004 18.3223C81.0004 18.9588 80.9705 19.56 80.912 20.1258Z" fill="#C44E4F"/>
<path d="M92.6378 22.2124C92.4488 22.2124 92.3194 22.3539 92.2487 22.6368C91.5644 24.9945 90.527 26.1731 89.1359 26.1731C88.3809 26.1731 87.7795 25.9256 87.3318 25.4305C86.8836 24.9354 86.5652 24.2757 86.3768 23.4502C86.1877 22.6252 86.0938 21.7411 86.0938 20.7979V20.6565C86.0938 20.3028 86.1115 19.8022 86.1469 19.1535C86.1822 18.5054 86.253 17.8097 86.3591 17.0671C86.4652 16.3245 86.6122 15.6172 86.8013 14.9453C86.9897 14.2734 87.2313 13.7198 87.5264 13.2833C87.821 12.8473 88.1924 12.629 88.6406 12.629C89.0414 12.629 89.3127 12.8296 89.4542 13.2302C89.5957 13.6314 89.6665 14.0673 89.6665 14.5386C89.6665 15.741 89.9494 16.3422 90.5154 16.3422C90.8454 16.3422 91.1284 16.1714 91.3644 15.8294C91.5998 15.4879 91.7181 14.9514 91.7181 14.2204C91.7181 13.5369 91.4998 12.9296 91.0637 12.3992C90.6271 11.8687 90.0672 11.6035 89.3835 11.6035C88.2515 11.6035 87.2965 11.9102 86.5183 12.523C85.7401 13.1363 85.1149 13.932 84.6435 14.91C84.1715 15.8885 83.8354 16.9317 83.6354 18.0396C83.4347 19.148 83.3347 20.1851 83.3347 21.1515V21.6643C83.3347 21.8411 83.3463 22.0124 83.3701 22.1771C83.4408 23.1203 83.6232 24.0104 83.9184 24.847C84.2129 25.6841 84.6844 26.3676 85.3333 26.898C85.9816 27.4285 86.8482 27.6937 87.9332 27.6937C89.2298 27.6937 90.2678 27.2926 91.046 26.4914C91.8242 25.6902 92.4018 24.6409 92.7793 23.3441C92.85 23.0849 92.8854 22.8727 92.8854 22.7075C92.8854 22.3776 92.8025 22.2124 92.6378 22.2124Z" fill="#C44E4F"/>
<path d="M131.017 9.12825C131.489 9.12825 131.889 8.96359 132.22 8.63317C132.55 8.30329 132.715 7.9027 132.715 7.43082C132.715 6.9595 132.55 6.5589 132.22 6.22848C131.889 5.89861 131.489 5.7334 131.017 5.7334C130.569 5.7334 130.174 5.89861 129.832 6.22848C129.49 6.5589 129.319 6.9595 129.319 7.43082C129.319 7.9027 129.49 8.3033 129.832 8.63317C130.174 8.96359 130.569 9.12825 131.017 9.12825Z" fill="#C44E4F"/>
<path d="M160.482 15.8116C160.387 14.6092 160.133 13.5958 159.721 12.7703C159.308 11.9454 158.654 11.5326 157.758 11.5326C157.144 11.5326 156.591 11.8454 156.095 12.4697C155.6 13.0947 155.164 13.8903 154.787 14.8567C154.409 15.8237 154.085 16.8194 153.814 17.8449C153.543 18.8705 153.336 19.796 153.195 20.6209L153.089 16.342C153.631 15.2104 154.155 13.9495 154.663 12.5582C155.17 11.1674 155.612 9.81199 155.989 8.49139C156.366 7.17135 156.602 6.05134 156.697 5.1319C156.744 4.87276 156.779 4.58377 156.803 4.26551C156.826 3.94724 156.838 3.63505 156.838 3.32838C156.838 2.78634 156.773 2.27357 156.644 1.79009C156.514 1.30717 156.284 0.906017 155.954 0.58775C155.623 0.269482 155.128 0.110352 154.468 0.110352C153.784 0.110352 153.218 0.387732 152.77 0.94138C152.322 1.49558 151.98 2.1498 151.745 2.90403C151.509 3.65881 151.343 4.33071 151.249 4.91973C151.155 5.58002 151.09 6.26352 151.055 6.97078C151.019 7.67805 151.002 8.34994 151.002 8.98648C151.002 9.57605 151.013 10.1181 151.037 10.6132C151.06 11.1083 151.072 11.4857 151.072 11.7448C151.119 13.466 151.179 15.1811 151.249 16.8901C151.32 18.5997 151.355 20.2319 151.355 21.7879C151.355 21.9866 151.354 22.1836 151.351 22.3799C151.218 22.5909 151.061 22.7833 150.878 22.9549C150.678 23.1439 150.412 23.3085 150.083 23.45C149.823 23.5445 149.534 23.6213 149.216 23.6798C148.898 23.739 148.573 23.7804 148.243 23.8036C148.361 23.4737 148.438 23.1317 148.473 22.7781C148.508 22.4244 148.526 22.0946 148.526 21.7879V21.6111C148.526 20.8099 148.379 19.9435 148.084 19.0119C147.789 18.0809 147.477 17.1498 147.147 16.2182C146.816 15.2872 146.604 14.4324 146.51 13.6544C146.486 13.5367 146.474 13.4069 146.474 13.2654V12.8764C146.474 12.3813 146.533 11.9393 146.651 11.5503C146.769 11.1613 146.958 10.9552 147.217 10.9314C147.382 10.9314 147.465 10.8491 147.465 10.6839C147.465 10.5424 147.37 10.4601 147.182 10.4364C147.134 10.4364 147.076 10.4308 147.005 10.4187C146.934 10.4071 146.875 10.401 146.828 10.401C146.121 10.401 145.46 10.6016 144.847 11.0022C144.045 11.521 143.462 12.2697 143.096 13.2477C142.73 14.2263 142.43 15.1396 142.194 15.9884C141.982 16.7194 141.746 17.5504 141.487 18.4815C141.227 19.413 140.944 20.3148 140.638 21.1867C140.52 21.0221 140.426 20.9392 140.355 20.9392H140.32C140.131 20.9392 139.989 21.0453 139.895 21.2574C139.801 21.4696 139.754 21.7172 139.754 22.0001C139.754 22.3334 139.793 22.6142 139.871 22.843C139.802 23.0566 139.733 23.2654 139.665 23.4676C139.512 23.9274 139.341 24.3224 139.153 24.6523C138.893 25.1711 138.651 25.5248 138.427 25.7132C138.203 25.9022 137.997 25.9961 137.808 25.9961H137.773C137.396 25.9961 137.113 25.737 136.924 25.2181C136.735 24.6998 136.617 24.0749 136.57 23.3439C136.523 22.6134 136.5 21.9415 136.5 21.3282V20.5148C136.523 19.36 136.57 18.0924 136.641 16.7133C136.712 15.3341 136.806 13.9964 136.924 12.6996H139.754C139.895 12.6996 140.001 12.641 140.072 12.5228C140.143 12.4051 140.178 12.2874 140.178 12.1691C140.178 11.91 140.072 11.7801 139.86 11.7801H137.03C137.148 10.4363 137.283 9.24008 137.437 8.19079C137.59 7.14205 137.725 6.41711 137.844 6.01596C137.678 5.96899 137.508 5.93362 137.331 5.90987C137.154 5.88666 136.995 5.87451 136.853 5.87451C136.334 5.87451 135.921 5.97507 135.615 6.17509C135.308 6.37567 135.096 6.60553 134.979 6.86467C134.813 7.24206 134.672 7.8786 134.554 8.77427C134.436 9.67051 134.33 10.6723 134.236 11.7801H133.21C133.092 11.7801 132.992 11.8453 132.909 11.9746C132.827 12.1045 132.785 12.2283 132.785 12.3459C132.785 12.5819 132.88 12.6996 133.068 12.6996H134.165C134.07 13.7842 134 14.8512 133.953 15.8999C133.905 16.9492 133.87 17.8626 133.847 18.6406C133.823 19.4186 133.799 19.949 133.776 20.2319V20.7624C133.776 21.123 133.793 21.5176 133.826 21.9452C133.821 21.9629 133.816 21.9806 133.812 22.0001C133.505 23.0847 133.175 23.9688 132.821 24.6523C132.561 25.1711 132.32 25.5248 132.096 25.7132C131.872 25.9022 131.665 25.9961 131.477 25.9961H131.442C131.111 25.9961 130.846 25.8077 130.646 25.4303C130.445 25.0534 130.297 24.5639 130.203 23.9627C130.109 23.3615 130.05 22.7134 130.027 22.0177C130.003 21.3226 129.991 20.6684 129.991 20.0551C129.991 18.2869 130.156 16.6724 130.486 15.2104C130.816 13.7489 131.099 12.6056 131.335 11.7801C131.029 11.7094 130.722 11.674 130.416 11.674C129.873 11.674 129.443 11.7978 129.125 12.0454C128.806 12.2929 128.576 12.5581 128.435 12.841C128.293 13.1477 128.146 13.6605 127.993 14.3793C127.839 15.0987 127.71 15.9353 127.604 16.8901C127.497 17.8449 127.444 18.8295 127.444 19.8429C127.444 20.6735 127.491 21.4791 127.583 22.2607C127.304 23.3703 126.928 24.2916 126.455 25.0236C125.959 25.79 125.252 26.1729 124.332 26.1729C123.577 26.1729 122.97 25.9198 122.51 25.4126C122.051 24.9059 121.72 24.234 121.52 23.3969C121.319 22.5603 121.219 21.6586 121.219 20.6916V20.5148C122.162 20.3026 123.07 19.9136 123.943 19.3478C124.815 18.782 125.54 18.0455 126.118 17.1376C126.696 16.2304 126.985 15.1871 126.985 14.008C126.985 13.1361 126.773 12.4758 126.348 12.0277C125.924 11.5801 125.334 11.3558 124.58 11.3558C123.519 11.3558 122.599 11.6448 121.821 12.2222C121.042 12.8001 120.4 13.5604 119.893 14.5031C119.385 15.4463 119.014 16.4895 118.779 17.6327C118.543 18.7765 118.425 19.9136 118.425 21.0453C118.425 21.4462 118.452 21.8501 118.504 22.2568C117.853 22.2931 117.202 22.4431 116.551 22.7073C116.244 21.8824 115.796 21.2928 115.206 20.9392C114.617 20.5855 113.98 20.4087 113.296 20.4087C112.636 20.4087 111.975 20.5679 111.315 20.8861C110.655 21.2044 110.101 21.6586 109.653 22.2476C109.794 21.847 109.947 21.458 110.113 21.0806C110.277 20.7038 110.407 20.4325 110.502 20.2673C111.02 19.2301 111.557 18.2461 112.111 17.3145C112.665 16.3834 113.166 15.5877 113.615 14.9275C114.062 14.2677 114.369 13.808 114.534 13.5483C115.218 13.2892 115.796 12.9294 116.268 12.4697C116.739 12.01 117.01 11.5917 117.081 11.2143V11.0375C117.081 10.7784 116.998 10.5485 116.834 10.3479C116.668 10.1479 116.421 10.0473 116.091 10.0473C115.501 10.0473 115.059 10.3186 114.764 10.8607C114.469 11.4033 114.298 11.9216 114.251 12.4167C114.11 12.4874 113.968 12.5228 113.827 12.5228C113.496 12.5228 113.102 12.4051 112.642 12.1691C112.182 11.9337 111.716 11.6801 111.245 11.4088C110.773 11.1381 110.325 10.9552 109.9 10.8607C109.617 10.79 109.37 10.7546 109.158 10.7546C108.568 10.7546 108.12 10.9552 107.813 11.3558C107.507 11.7569 107.271 12.2874 107.106 12.9471C106.823 14.0787 106.664 15.2341 106.628 16.4127C106.593 17.5918 106.445 18.7704 106.186 19.949C106.021 20.6563 105.85 21.3519 105.673 22.0354C105.591 22.3541 105.504 22.6642 105.414 22.9673C105.23 23.4919 105.04 23.9654 104.842 24.3871C104.583 24.9413 104.206 25.3717 103.71 25.6778C103.474 25.7961 103.286 25.8546 103.144 25.8546C102.625 25.8546 102.26 25.4424 102.048 24.6169C101.93 24.0986 101.871 23.5207 101.871 22.8841C101.871 22.1769 101.918 21.4166 102.012 20.6032C102.106 19.7899 102.219 19.0064 102.348 18.2516C102.478 17.4973 102.602 16.8492 102.72 16.3066C102.838 15.7646 102.908 15.3993 102.932 15.2104C103.05 14.739 103.109 14.2086 103.109 13.619C103.109 13.0532 102.991 12.5349 102.755 12.063C102.519 11.5917 102.048 11.3558 101.34 11.3558C100.633 11.3558 100.014 11.621 99.4833 12.1514C98.9527 12.6819 98.5106 13.2184 98.1568 13.7605C97.5201 14.7037 96.995 15.6878 96.5827 16.7133C96.1699 17.7388 95.8338 18.7942 95.5746 19.8783L95.4685 17.226C95.8692 16.4249 96.2644 15.5761 96.6535 14.6799C97.0426 13.7842 97.3902 12.9002 97.697 12.0277C97.8385 11.6271 98.0446 10.9668 98.316 10.0473C98.5868 9.1279 98.8344 8.09685 99.0588 6.95307C99.2826 5.80985 99.3948 4.73128 99.3948 3.71735C99.3948 2.72719 99.2296 1.88455 98.8996 1.18889C98.5691 0.493786 97.9562 0.14568 97.0603 0.14568C96.2821 0.14568 95.6509 0.434661 95.1678 1.01208C94.6842 1.59004 94.3128 2.35034 94.0536 3.293C93.7938 4.23619 93.6169 5.25012 93.523 6.33422C93.4284 7.41887 93.3815 8.46816 93.3815 9.48154C93.3815 10.307 93.3992 11.0673 93.4345 11.7625C93.4699 12.4581 93.4992 13.0062 93.523 13.4068C93.6169 14.6567 93.6877 15.9176 93.7352 17.1907C93.7822 18.4638 93.8059 19.7368 93.8059 21.0099V22.6896C93.8059 23.2439 93.7822 23.8036 93.7352 24.3694C93.7114 25.0534 93.6877 25.6425 93.6645 26.1376C93.6407 26.6326 93.6053 26.9747 93.5583 27.1631C93.8645 27.1631 94.2006 27.0802 94.5665 26.9155C94.9318 26.7509 95.2325 26.4442 95.4685 25.9961C95.5392 25.8784 95.5978 25.6071 95.6453 25.1827C95.6923 24.7584 95.7393 24.2755 95.7868 23.7329C95.8338 23.1908 95.8808 22.6841 95.9283 22.2123C95.9753 21.7409 96.0107 21.3989 96.0344 21.1867C96.2937 19.796 96.6651 18.529 97.1487 17.3852C97.6318 16.242 98.0977 15.3756 98.5459 14.786C98.8051 14.4561 99.029 14.2202 99.218 14.0787C99.4064 13.9373 99.5595 13.8666 99.6778 13.8666C99.9133 13.8666 100.067 14.0202 100.138 14.3263C100.208 14.6329 100.244 14.9866 100.244 15.3872C100.244 15.8353 100.208 16.2712 100.138 16.6956C100.067 17.1675 99.9724 17.7687 99.8547 18.4991C99.7364 19.2301 99.6364 20.0021 99.554 20.8154C99.4711 21.6288 99.4302 22.4128 99.4302 23.1671C99.4302 23.4975 99.4418 23.8157 99.4656 24.1219C99.4888 24.4285 99.5242 24.7114 99.5717 24.9706C99.6894 25.6309 99.9664 26.1674 100.403 26.5796C100.839 26.9924 101.376 27.1984 102.012 27.1984H102.083C103.05 27.1984 103.834 26.8863 104.435 26.2613C104.927 25.751 105.318 25.1562 105.613 24.4801C105.657 24.4123 105.695 24.3293 105.726 24.228C105.758 24.1359 105.791 24.0398 105.823 23.9419C105.907 23.706 105.988 23.4659 106.063 23.2201C106.102 23.09 106.132 22.9722 106.153 22.8664C106.205 22.6846 106.257 22.4964 106.31 22.3007C106.51 21.558 106.693 20.7861 106.858 19.9844C107.023 19.2302 107.165 18.4699 107.283 17.7035C107.401 16.9376 107.542 16.1889 107.707 15.4579C107.825 14.9396 107.996 14.5329 108.22 14.2379C108.444 13.9434 108.815 13.7959 109.334 13.7959C109.476 13.7959 109.635 13.808 109.812 13.8312C109.989 13.855 110.171 13.8903 110.36 13.9373C110.525 13.9611 110.726 13.9964 110.962 14.0434C111.197 14.0909 111.457 14.1141 111.74 14.1141C112.141 14.1141 112.536 14.0434 112.925 13.9019C113.314 13.7605 113.626 13.5013 113.862 13.124C113.673 13.4544 113.332 13.9964 112.836 14.7507C112.341 15.5054 111.793 16.3718 111.192 17.3498C110.59 18.3284 110.007 19.3246 109.441 20.338C108.875 21.3519 108.409 22.2891 108.043 23.1494C107.677 24.0102 107.495 24.6761 107.495 25.1474C107.495 25.1949 107.501 25.2358 107.513 25.2712C107.524 25.3065 107.53 25.348 107.53 25.3949C107.601 25.8193 107.801 26.0315 108.132 26.0315C108.579 26.0315 108.945 25.8016 109.228 25.3419C109.511 24.8822 109.653 24.334 109.653 23.6975V23.5207C109.912 23.1908 110.242 22.914 110.643 22.6897C111.044 22.4659 111.468 22.3537 111.917 22.3537C112.341 22.3537 112.748 22.4836 113.137 22.7427C113.526 23.0024 113.827 23.45 114.039 24.0865C112.954 24.7706 111.922 25.5662 110.944 26.4735C109.965 27.3808 109.092 28.3063 108.326 29.2495C107.56 30.1922 106.941 31.0762 106.469 31.9017C106.139 32.4675 105.844 33.1687 105.585 34.0058C105.325 34.8424 105.196 35.6734 105.196 36.4989C105.196 37.4416 105.437 38.261 105.921 38.9567C106.404 39.6518 107.283 39.9999 108.556 39.9999C109.523 39.9999 110.431 39.6993 111.28 39.0981C112.129 38.497 112.901 37.6891 113.597 36.6758C114.292 35.6618 114.894 34.5363 115.401 33.2986C115.908 32.0609 116.303 30.7933 116.586 29.4971C116.869 28.2002 117.01 26.9747 117.01 25.8193C117.01 25.4187 116.993 25.0181 116.957 24.6169C116.922 24.2163 116.857 23.8511 116.763 23.5207C117.41 23.2234 118.025 23.0172 118.608 22.9015C118.683 23.2881 118.781 23.6771 118.902 24.0688C119.221 25.0944 119.728 25.9552 120.423 26.6503C121.119 27.3454 122.033 27.6935 123.165 27.6935C124.085 27.6935 124.857 27.499 125.482 27.11C126.106 26.7211 126.643 26.1613 127.091 25.4303C127.327 25.0297 127.551 24.5462 127.763 23.9804C127.787 23.9176 127.809 23.8542 127.831 23.7906C128.037 24.7185 128.351 25.495 128.771 26.1199C129.254 26.8393 129.921 27.1985 130.769 27.1985C131.477 27.1985 132.084 26.9155 132.591 26.3497C133.098 25.7839 133.493 25.112 133.776 24.334C133.876 24.0605 133.96 23.7979 134.03 23.5448C134.117 23.9818 134.232 24.41 134.377 24.8291C134.613 25.5132 134.949 26.079 135.385 26.5266C135.821 26.9747 136.393 27.1985 137.101 27.1985C137.808 27.1985 138.415 26.9155 138.923 26.3497C139.34 25.8832 139.681 25.3434 139.947 24.7327C140.069 25.6137 140.411 26.2536 140.974 26.6503C141.693 27.157 142.583 27.4106 143.645 27.4106C144.8 27.4106 145.726 27.1393 146.421 26.5973C147.117 26.0552 147.63 25.4071 147.96 24.6523C148.88 24.6053 149.681 24.4169 150.365 24.0865C150.755 23.8984 151.076 23.6795 151.328 23.4299C151.317 23.7533 151.302 24.0665 151.285 24.3694C151.261 25.0535 151.237 25.6425 151.214 26.1376C151.19 26.6326 151.155 26.9747 151.108 27.1631C151.721 27.1631 152.228 26.8686 152.629 26.279C152.817 26.0199 152.947 25.6602 153.018 25.2004C153.089 24.7407 153.136 24.228 153.159 23.6622C153.23 22.861 153.377 21.9769 153.602 21.0099C153.825 20.0435 154.055 19.1948 154.291 18.4638C154.362 18.2046 154.474 17.8217 154.627 17.3145C154.781 16.8078 154.969 16.295 155.193 15.7762C155.417 15.2579 155.659 14.8159 155.919 14.4501C156.178 14.0848 156.449 13.9019 156.732 13.9019C157.062 13.9019 157.31 14.1025 157.475 14.5031C157.64 14.9043 157.752 15.4049 157.811 16.0061C157.87 16.6072 157.899 17.2029 157.899 17.7919V18.7997C157.899 19.118 157.887 19.3832 157.864 19.5954C157.84 20.3972 157.752 21.2044 157.599 22.0178C157.445 22.8311 157.233 23.5798 156.962 24.2633C156.691 24.9474 156.319 25.4778 155.848 25.8547C155.541 26.1144 155.199 26.2437 154.822 26.2437C154.421 26.2437 154.067 26.0906 153.761 25.7839C153.666 25.69 153.584 25.6425 153.513 25.6425C153.395 25.6425 153.336 25.7607 153.336 25.9961C153.336 26.232 153.383 26.3973 153.478 26.4912C153.69 26.7509 153.967 26.9332 154.309 27.0393C154.651 27.1454 155.01 27.1985 155.388 27.1985C155.836 27.1985 156.237 27.1393 156.591 27.0216C157.369 26.7863 158.017 26.3265 158.536 25.6425C159.055 24.959 159.461 24.1517 159.757 23.2201C160.051 22.2891 160.257 21.3166 160.376 20.3027C160.493 19.2893 160.552 18.3345 160.552 17.4383C160.552 17.1321 160.546 16.8432 160.535 16.5719C160.523 16.3011 160.505 16.0475 160.482 15.8116ZM121.255 19.6661C121.255 19.407 121.284 18.9942 121.343 18.4284C121.402 17.8626 121.502 17.2382 121.644 16.5542C121.785 15.8707 121.968 15.2104 122.192 14.5738C122.416 13.9373 122.687 13.4129 123.006 13.0002C123.324 12.588 123.695 12.3813 124.12 12.3813C124.474 12.3813 124.715 12.5703 124.845 12.9471C124.974 13.3245 125.04 13.7251 125.04 14.1495V14.3263C125.04 15.1043 124.88 15.8707 124.562 16.6249C124.244 17.3797 123.802 18.0339 123.236 18.5875C122.67 19.1418 122.009 19.5131 121.255 19.7015V19.6661ZM95.4331 15.7408V14.3617C95.4331 13.1831 95.4563 11.9868 95.5039 10.7723C95.5509 9.55837 95.6454 8.33834 95.7869 7.11224C95.9516 5.72147 96.176 4.5252 96.4589 3.52288C96.7419 2.52112 97.0603 2.01995 97.414 2.01995C97.697 2.01995 97.9032 2.24428 98.033 2.69185C98.1624 3.13997 98.2392 3.70578 98.263 4.38927V4.74291C98.263 5.8038 98.1331 6.97078 97.8739 8.24385C97.6141 9.51692 97.2725 10.7961 96.848 12.0807C96.4236 13.366 95.9516 14.586 95.4331 15.7408ZM114.021 31.1768C113.726 32.5792 113.314 33.8876 112.783 35.1021C112.253 36.3161 111.616 37.3062 110.873 38.0726C110.13 38.8384 109.311 39.2219 108.415 39.2219C107.92 39.2219 107.53 38.992 107.247 38.5323C106.964 38.0726 106.823 37.4538 106.823 36.6758C106.823 36.1807 106.888 35.6326 107.018 35.0314C107.147 34.4302 107.341 33.7992 107.601 33.1395C108.167 31.7481 109.022 30.3458 110.166 28.9313C111.309 27.5167 112.683 26.2321 114.287 25.0767C114.334 25.3833 114.375 25.7132 114.41 26.0668C114.446 26.4205 114.464 26.7863 114.464 27.1631C114.464 28.4362 114.316 29.7739 114.021 31.1768ZM145.042 24.5993C145.03 24.6114 145.024 24.6291 145.024 24.6523C144.835 25.1712 144.529 25.5541 144.104 25.8016C143.68 26.0492 143.256 26.1967 142.831 26.2437H142.69C142.1 26.2437 141.622 26.0491 141.257 25.6602C140.891 25.2712 140.709 24.723 140.709 24.0158C140.709 23.9688 140.714 23.9097 140.726 23.839C140.738 23.7682 140.744 23.6975 140.744 23.6268C141.216 23.8627 141.835 24.0572 142.601 24.2103C143.367 24.3639 144.187 24.4755 145.06 24.5462C145.06 24.57 145.053 24.5877 145.042 24.5993ZM145.449 22.6013C145.425 22.8842 145.39 23.1555 145.343 23.4146C144.941 23.3207 144.558 23.2085 144.193 23.0787C143.827 22.9494 143.491 22.8134 143.185 22.672C142.854 22.5305 142.518 22.3775 142.177 22.2123C141.835 22.0476 141.534 21.8824 141.275 21.7172C141.652 20.68 142.005 19.6252 142.336 18.5522C142.666 17.4797 142.973 16.4365 143.256 15.4226C143.349 15.0689 143.468 14.6683 143.609 14.2202C143.751 13.7726 143.892 13.3715 144.034 13.0179C144.175 12.6642 144.305 12.4874 144.423 12.4874C144.352 12.7941 144.317 13.1361 144.317 13.5129C144.317 14.244 144.428 15.0689 144.653 15.9884C144.877 16.9078 145.071 17.9217 145.236 19.0296C145.307 19.4777 145.366 19.9313 145.413 20.3911C145.46 20.8508 145.484 21.305 145.484 21.7525C145.484 22.0355 145.472 22.3184 145.449 22.6013ZM153.053 13.619C153.053 12.6526 153.077 11.6741 153.124 10.6839C153.171 9.69373 153.242 8.69197 153.336 7.67804C153.454 6.68787 153.584 5.7629 153.725 4.90204C153.867 4.04172 154.032 3.34053 154.221 2.79793C154.409 2.25588 154.621 1.98458 154.857 1.98458C155.117 1.98458 155.3 2.20284 155.406 2.6388C155.512 3.07531 155.565 3.59968 155.565 4.21246C155.565 4.77827 155.535 5.36176 155.476 5.96293C155.417 6.56411 155.358 7.10063 155.3 7.57196C155.24 8.04383 155.187 8.34994 155.14 8.49139C154.999 9.17545 154.727 10.0949 154.327 11.2497C153.926 12.4051 153.501 13.5251 153.053 14.6092V13.619Z" fill="#C44E4F"/>
<path d="M165.894 9.12825C166.365 9.12825 166.766 8.96359 167.096 8.63317C167.426 8.30329 167.591 7.9027 167.591 7.43082C167.591 6.9595 167.426 6.5589 167.096 6.22848C166.766 5.89861 166.365 5.7334 165.894 5.7334C165.445 5.7334 165.05 5.89861 164.709 6.22848C164.366 6.5589 164.196 6.9595 164.196 7.43082C164.196 7.9027 164.366 8.3033 164.709 8.63317C165.05 8.96359 165.445 9.12825 165.894 9.12825Z" fill="#C44E4F"/>
<path d="M208.588 21.6818C208.446 21.6818 208.352 21.7879 208.305 22.0001C208.234 22.2598 208.128 22.6073 207.986 23.0433C207.845 23.4798 207.668 23.9274 207.456 24.3871C207.243 24.8468 206.996 25.2303 206.713 25.5364C206.43 25.8431 206.099 25.9961 205.722 25.9961C205.109 25.9961 204.69 25.6016 204.467 24.8115C204.242 24.0219 204.131 23.1085 204.131 22.0708C204.131 21.3404 204.166 20.6093 204.237 19.8783C204.307 19.1478 204.39 18.4992 204.484 17.9333C204.578 17.3675 204.637 16.9907 204.661 16.8017C204.826 15.9768 205.027 15.1927 205.263 14.4501C205.498 13.7075 205.758 13.0416 206.041 12.4521C205.475 12.2167 204.991 12.0984 204.59 12.0984C204.001 12.0984 203.57 12.2752 203.299 12.6289C203.028 12.9825 202.798 13.2538 202.61 13.4422C202.515 13.5367 202.314 13.5837 202.008 13.5837C201.772 13.5837 201.483 13.5367 201.142 13.4422C200.799 13.3483 200.487 13.1947 200.204 12.9825C200.204 12.6526 200.121 12.2106 199.957 11.6564C199.791 11.1027 199.579 10.5955 199.32 10.1358C199.06 9.67607 198.765 9.4462 198.436 9.4462H198.365C198.105 9.4462 197.91 9.57605 197.781 9.8352C197.651 10.0949 197.587 10.3894 197.587 10.7193C197.587 11.1674 197.722 11.6387 197.993 12.1338C198.264 12.6289 198.695 13.0063 199.284 13.2654V13.6544C199.284 14.4562 199.214 15.4579 199.072 16.6603C198.931 17.8626 198.73 19.1064 198.471 20.3911C198.25 21.4841 197.986 22.5036 197.681 23.4511C197.462 24.0471 197.207 24.5716 196.915 25.0236C196.42 25.79 195.712 26.1729 194.793 26.1729C194.038 26.1729 193.431 25.9199 192.971 25.4126C192.511 24.9059 192.181 24.234 191.98 23.3969C191.78 22.5604 191.68 21.6586 191.68 20.6917V20.5148C192.623 20.3027 193.531 19.9137 194.403 19.3479C195.276 18.7821 196.001 18.0455 196.579 17.1377C197.157 16.2304 197.446 15.1872 197.446 14.008C197.446 13.1361 197.233 12.4758 196.809 12.0277C196.384 11.5801 195.795 11.3558 195.04 11.3558C193.979 11.3558 193.059 11.6448 192.281 12.2222C191.503 12.8002 190.86 13.5605 190.353 14.5031C189.846 15.4463 189.474 16.4895 189.239 17.6327C189.003 18.7765 188.885 19.9137 188.885 21.0453C188.885 21.3069 188.897 21.5698 188.919 21.8339C188.89 21.8773 188.867 21.9324 188.85 22.0001C188.779 22.2123 188.679 22.5366 188.549 22.9726C188.42 23.4091 188.249 23.8627 188.037 24.3341C187.824 24.8059 187.588 25.2005 187.329 25.5187C187.069 25.837 186.775 25.9961 186.445 25.9961C186.114 25.9961 185.849 25.79 185.649 25.3773C185.448 24.9651 185.289 24.4346 185.171 23.7859C185.053 23.1378 184.977 22.4305 184.941 21.6641C184.906 20.8983 184.888 20.1612 184.888 19.4539C184.888 18.6997 184.9 18.0394 184.924 17.4736C184.947 16.9078 184.971 16.5426 184.994 16.3774C185.49 15.4347 186.003 14.3086 186.533 13.0002C187.064 11.6918 187.529 10.3424 187.93 8.95111C188.331 7.56035 188.603 6.28728 188.744 5.1319C188.791 4.87276 188.826 4.58377 188.85 4.26551C188.873 3.94724 188.886 3.63505 188.886 3.32838C188.886 2.78634 188.82 2.27357 188.691 1.79009C188.561 1.30717 188.331 0.906017 188.001 0.58775C187.671 0.269482 187.175 0.110352 186.516 0.110352C185.997 0.110352 185.554 0.287167 185.189 0.640797C184.823 0.994428 184.517 1.43647 184.269 1.96691C184.022 2.49736 183.833 3.04549 183.703 3.6113C183.573 4.17711 183.473 4.68435 183.403 5.13191C183.308 5.79221 183.226 6.70004 183.155 7.85487C183.084 9.01024 183.025 10.2126 182.978 11.4619C182.648 11.2265 182.212 11.1083 181.669 11.1083C180.726 11.1083 179.912 11.3442 179.229 11.8155C178.544 12.2874 177.973 12.9063 177.513 13.6721C177.053 14.4385 176.693 15.2811 176.434 16.2006C176.174 17.12 175.986 18.0394 175.868 18.9589C175.75 19.8783 175.691 20.7038 175.691 21.4343C175.691 21.7127 175.698 21.9853 175.711 22.253C175.664 22.3145 175.622 22.3949 175.585 22.4952C175.491 22.7781 175.402 23.0494 175.32 23.3085C175.237 23.5682 175.149 23.8036 175.055 24.0158C174.889 24.4169 174.648 24.8352 174.33 25.2712C174.011 25.7077 173.592 25.9254 173.074 25.9254C172.626 25.9254 172.26 25.7132 171.977 25.2889C171.694 24.8645 171.476 24.3048 171.323 23.6091C171.169 22.914 171.063 22.1537 171.005 21.3282C170.945 20.5033 170.916 19.6899 170.916 18.8882V18.3047C170.916 18.1046 170.928 17.9101 170.951 17.7212C171.423 16.8962 171.9 15.9829 172.384 14.9805C172.867 13.9788 173.286 12.9825 173.64 11.9923C174.347 10.0827 174.836 8.35603 175.108 6.81166C175.379 5.26784 175.515 4.08317 175.515 3.25767C175.515 1.15965 174.819 0.110357 173.428 0.110357C172.743 0.110357 172.154 0.387738 171.659 0.941386C171.164 1.49559 170.762 2.14981 170.456 2.90404C170.149 3.65882 169.926 4.33071 169.784 4.91973C169.524 6.07511 169.307 7.38962 169.13 8.86271C168.953 10.3364 168.823 11.8509 168.741 13.4069C168.658 14.9628 168.617 16.4719 168.617 17.9333C168.617 18.7351 168.628 19.4954 168.652 20.2143C168.671 20.7906 168.698 21.3388 168.732 21.8618C168.714 21.9014 168.7 21.9474 168.688 22.0001C168.381 23.0848 168.051 23.9688 167.698 24.6523C167.438 25.1712 167.196 25.5248 166.972 25.7132C166.748 25.9022 166.542 25.9961 166.353 25.9961H166.318C165.987 25.9961 165.722 25.8077 165.522 25.4303C165.321 25.0535 165.174 24.5639 165.08 23.9628C164.985 23.3616 164.926 22.7134 164.903 22.0178C164.879 21.3227 164.868 20.6685 164.868 20.0551C164.868 18.287 165.032 16.6724 165.363 15.2104C165.693 13.7489 165.976 12.6057 166.212 11.7802C165.905 11.7094 165.598 11.6741 165.292 11.6741C164.749 11.6741 164.319 11.7979 164.001 12.0454C163.683 12.2929 163.453 12.5582 163.311 12.8411C163.17 13.1477 163.022 13.6605 162.869 14.3794C162.716 15.0988 162.586 15.9353 162.48 16.8901C162.374 17.8449 162.321 18.8296 162.321 19.843C162.321 21.0691 162.421 22.2421 162.622 23.3616C162.822 24.4816 163.164 25.401 163.647 26.1199C164.13 26.8393 164.797 27.1985 165.646 27.1985C166.353 27.1985 166.96 26.9156 167.468 26.3498C167.974 25.784 168.37 25.1121 168.653 24.3341C168.766 24.023 168.859 23.7259 168.935 23.4413C169.001 23.7473 169.083 24.0622 169.183 24.3871C169.418 25.1535 169.784 25.8077 170.279 26.3498C170.775 26.8924 171.447 27.1631 172.296 27.1631C173.286 27.1631 174.052 26.8509 174.595 26.226C175.137 25.6016 175.55 24.8529 175.833 23.9804C175.846 23.9434 175.859 23.9064 175.871 23.8693C175.892 24.0021 175.914 24.1337 175.939 24.2633C176.104 25.1358 176.363 25.837 176.717 26.3674C177.071 26.8979 177.531 27.1631 178.097 27.1631C178.733 27.1631 179.34 26.7979 179.918 26.0669C180.496 25.3364 181.021 24.417 181.493 23.3085C181.964 22.2007 182.353 21.0807 182.66 19.949C182.66 21.1514 182.736 22.3068 182.89 23.4146C183.043 24.523 183.337 25.4303 183.774 26.1376C184.21 26.8449 184.853 27.1985 185.702 27.1985C186.456 27.1985 187.099 26.9217 187.63 26.3675C188.16 25.8138 188.573 25.1535 188.868 24.3871C189.001 24.0408 189.103 23.7084 189.176 23.3884C189.231 23.6144 189.292 23.8411 189.363 24.0688C189.681 25.0944 190.188 25.9552 190.884 26.6504C191.579 27.3455 192.493 27.6936 193.625 27.6936C194.545 27.6936 195.317 27.4991 195.942 27.1101C196.567 26.7211 197.103 26.1614 197.552 25.4303C197.72 25.1447 197.882 24.816 198.038 24.4463C198.083 24.3782 198.121 24.2947 198.153 24.1926C198.197 24.0683 198.242 23.9392 198.285 23.8075C198.315 23.7212 198.344 23.6343 198.371 23.5464C198.594 22.8403 198.805 22.0365 199.002 21.1337C199.261 19.9435 199.491 18.6997 199.691 17.4029C199.891 16.1066 200.039 14.8921 200.133 13.7605C200.393 13.9965 200.711 14.197 201.089 14.3617C201.465 14.5269 201.984 14.633 202.645 14.68C202.574 14.9629 202.462 15.4817 202.309 16.2359C202.155 16.9907 202.014 17.8571 201.884 18.8351C201.755 19.8137 201.69 20.8099 201.69 21.8233C201.69 22.7665 201.778 23.6445 201.955 24.4578C202.132 25.2712 202.444 25.9315 202.893 26.4382C203.34 26.9454 203.954 27.1985 204.732 27.1985C205.416 27.1985 206.064 27.0161 206.677 26.6504C207.29 26.2851 207.792 25.7309 208.181 24.9883C208.57 24.2457 208.764 23.3323 208.764 22.2476V22.0708C208.764 21.8117 208.705 21.6818 208.588 21.6818ZM191.715 19.6661C191.715 19.407 191.744 18.9942 191.804 18.4284C191.862 17.8626 191.963 17.2382 192.104 16.5542C192.246 15.8707 192.428 15.2104 192.653 14.5738C192.876 13.9373 193.148 13.4129 193.466 13.0002C193.784 12.588 194.156 12.3813 194.58 12.3813C194.934 12.3813 195.176 12.5703 195.306 12.9471C195.435 13.3245 195.5 13.7251 195.5 14.1495V14.3263C195.5 15.1043 195.341 15.8707 195.023 16.6249C194.704 17.3797 194.262 18.0339 193.696 18.5876C193.13 19.1418 192.47 19.5131 191.715 19.7015V19.6661ZM184.924 14.6092C184.924 14.2793 184.953 13.7075 185.012 12.8941C185.071 12.0808 185.148 11.1613 185.242 10.1358C185.336 9.11026 185.437 8.09688 185.543 7.09456C185.649 6.09279 185.755 5.22031 185.861 4.47769C185.967 3.73507 186.056 3.25766 186.126 3.04548C186.268 2.64488 186.409 2.36806 186.551 2.21445C186.692 2.0614 186.81 1.98459 186.905 1.98459C187.093 1.98459 187.246 2.10836 187.364 2.3559C187.482 2.60344 187.553 2.89243 187.577 3.2223C187.6 3.38751 187.612 3.55272 187.612 3.71738V4.24783C187.612 5.35624 187.476 6.54643 187.205 7.8195C186.934 9.09257 186.598 10.3364 186.197 11.5503C185.796 12.7648 185.371 13.855 184.924 14.8214V14.6092ZM171.04 15.4049C171.052 15.1811 171.058 14.9982 171.058 14.8568C171.081 14.5269 171.122 13.9904 171.181 13.2477C171.24 12.5051 171.323 11.6448 171.429 10.6662C171.535 9.68823 171.664 8.69806 171.818 7.69573C171.971 6.69397 172.142 5.75684 172.331 4.88437C172.519 4.01245 172.726 3.31071 172.95 2.78027C173.174 2.24982 173.415 1.9846 173.675 1.9846C173.958 1.9846 174.153 2.20893 174.259 2.6565C174.365 3.10462 174.418 3.67042 174.418 4.35392C174.418 5.46234 174.259 6.70005 173.94 8.06705C173.622 9.43461 173.203 10.8198 172.685 12.2222C172.166 13.6251 171.6 14.9512 170.987 16.2006C171.01 15.8944 171.028 15.6292 171.04 15.4049ZM182.907 13.2301C182.884 14.197 182.819 15.1573 182.713 16.1121C182.607 17.067 182.424 18.0162 182.165 18.9589C181.976 19.6899 181.734 20.4679 181.44 21.2928C181.144 22.1183 180.82 22.8195 180.467 23.3969C180.113 23.9749 179.736 24.2633 179.335 24.2633C179.099 24.2633 178.887 24.1103 178.698 23.8036C178.509 23.4975 178.391 22.9903 178.344 22.283C178.321 22.1183 178.309 21.9415 178.309 21.7526V21.2221C178.309 20.1612 178.409 19.0296 178.61 17.8272C178.81 16.6249 179.123 15.5762 179.547 14.6799C179.877 13.9964 180.313 13.4013 180.856 12.8941C181.398 12.3874 181.929 12.1338 182.448 12.1338C182.636 12.1338 182.801 12.1692 182.943 12.2399L182.907 13.2301Z" fill="#C44E4F"/>
<path d="M211.641 23.8516C211.165 23.8516 210.76 24.0182 210.428 24.3509C210.094 24.6841 209.928 25.0881 209.928 25.5635C209.928 26.0394 210.094 26.4434 210.428 26.7761C210.761 27.1087 211.165 27.2754 211.641 27.2754C212.116 27.2754 212.52 27.1087 212.854 26.7761C213.186 26.4434 213.353 26.0394 213.353 25.5635C213.353 25.0881 213.186 24.6841 212.854 24.3509C212.52 24.0182 212.116 23.8516 211.641 23.8516Z" fill="#C44E4F"/>
<path d="M238.039 17.8608C238.039 17.3614 238.021 16.7373 237.986 15.9884C237.95 15.2394 237.843 14.4904 237.665 13.7415C237.486 12.9925 237.201 12.3684 236.809 11.8691C236.416 11.3698 235.863 11.1201 235.15 11.1201C234.579 11.1201 234.02 11.4829 233.473 12.2079C232.926 12.9335 232.426 13.8546 231.975 14.9719C231.523 16.0897 231.13 17.2428 230.797 18.4314C230.773 17.5994 230.762 16.8387 230.762 16.1489C230.762 15.4595 230.749 14.9006 230.726 14.4726C230.702 13.8307 230.631 13.2778 230.512 12.8142C230.393 12.3505 230.107 12.1188 229.656 12.1188H229.477C229.192 12.1427 228.883 12.2497 228.55 12.4397C228.216 12.6303 227.812 12.7963 227.337 12.9391C227.48 13.3436 227.628 13.9856 227.783 14.8649C227.937 15.7449 228.068 16.7909 228.175 18.0034C228.282 19.216 228.336 20.5239 228.336 21.9265V22.0347C228.027 23.1281 227.694 24.0193 227.337 24.7084C227.075 25.2316 226.832 25.5882 226.606 25.7783C226.38 25.9689 226.172 26.0636 225.982 26.0636H225.946C225.613 26.0636 225.34 25.8619 225.125 25.4573C224.911 25.0533 224.745 24.554 224.626 23.9594C224.507 23.3654 224.424 22.7591 224.376 22.1405C224.328 21.5225 224.305 20.9875 224.305 20.5356V20.3929C224.305 19.323 224.37 18.2235 224.501 17.094C224.632 15.965 224.792 14.9246 224.983 13.9733C225.173 13.0227 225.34 12.2737 225.482 11.7264C225.292 11.679 225.108 11.6434 224.929 11.6195C224.751 11.5961 224.59 11.5838 224.448 11.5838C224.043 11.5838 223.698 11.6434 223.413 11.7621C223.128 11.8814 222.901 12.0357 222.735 12.2258C222.569 11.8457 222.301 11.5543 221.933 11.352C221.564 11.1503 221.153 11.0488 220.702 11.0488C219.536 11.0488 218.579 11.3876 217.83 12.0653C217.081 12.7429 216.492 13.605 216.064 14.651C215.636 15.6975 215.338 16.797 215.172 17.95C215.006 19.1035 214.922 20.1556 214.922 21.1062V21.4629C214.922 22.4854 215.017 23.4367 215.208 24.316C215.398 25.196 215.683 25.9031 216.064 26.4381C216.444 26.973 216.92 27.2405 217.491 27.2405H217.527C218.145 27.2405 218.716 26.914 219.239 26.2597C219.762 25.6061 220.244 24.768 220.684 23.7455C221.124 22.7234 221.487 21.6769 221.772 20.607C221.772 21.1775 221.819 21.8374 221.915 22.5864C222.009 23.3353 222.182 24.0725 222.432 24.7976C222.682 25.5231 223.032 26.1171 223.484 26.5808C223.936 27.0444 224.531 27.2762 225.268 27.2762C225.917 27.2762 226.481 27.0378 226.962 26.5662C226.833 26.892 226.707 27.2222 226.588 27.5616C226.35 28.2269 226.124 28.9285 225.91 29.6657C225.696 30.4024 225.53 31.1514 225.41 31.9126C225.316 32.4593 225.244 33.0121 225.197 33.571C225.149 34.1294 225.125 34.6588 225.125 35.1581C225.125 36.3468 225.298 37.3454 225.642 38.1539C225.987 38.962 226.576 39.3665 227.408 39.3665H227.515C228.324 39.3665 228.966 38.9977 229.442 38.2609C229.917 37.5237 230.274 36.5724 230.512 35.4078C230.702 34.4565 230.833 33.2322 230.904 31.7343C230.928 31.3537 230.94 30.8605 230.94 30.2543V26.6699C231.297 26.9553 231.82 27.0979 232.51 27.0979C233.509 27.0979 234.359 26.807 235.061 26.2241C235.762 25.6418 236.332 24.8867 236.773 23.9594C237.213 23.0322 237.534 22.0335 237.736 20.9636C237.938 19.8937 238.039 18.8593 238.039 17.8608ZM221.915 15.8814C221.819 17.011 221.629 18.1227 221.344 19.216C221.153 19.9533 220.928 20.7139 220.666 21.4986C220.404 22.2832 220.113 22.9491 219.792 23.4957C219.471 24.043 219.12 24.316 218.74 24.316C218.502 24.316 218.27 24.1616 218.044 23.8524C217.818 23.5437 217.681 23.0322 217.634 22.3189C217.61 22.0814 217.592 21.8318 217.58 21.5699C217.568 21.3085 217.562 21.0472 217.562 20.7853C217.562 19.7632 217.652 18.6933 217.83 17.5754C218.008 16.4581 218.288 15.4835 218.668 14.651C218.977 13.9856 219.405 13.391 219.953 12.8677C220.499 12.345 221.035 12.083 221.558 12.083C221.915 12.083 222.236 12.238 222.521 12.5467C222.212 13.6406 222.009 14.7523 221.915 15.8814ZM228.461 34.5517C228.401 35.5264 228.288 36.3228 228.122 36.9413C228.002 37.3927 227.866 37.7198 227.712 37.9221C227.556 38.1238 227.408 38.2252 227.266 38.2252C227.076 38.2252 226.891 38.0826 226.713 37.7973C226.534 37.5119 226.409 37.2026 226.338 36.8699C226.195 36.1088 226.124 35.3481 226.124 34.5874C226.124 33.6835 226.201 32.7864 226.356 31.8947C226.511 31.0031 226.707 30.1294 226.945 29.2735C227.135 28.5122 227.361 27.7872 227.622 27.0979C227.884 26.4085 228.122 25.8139 228.336 25.3146C228.383 26.0519 228.431 26.973 228.479 28.0787C228.526 29.1843 228.55 30.3194 228.55 31.4846C228.55 32.5546 228.52 33.5765 228.461 34.5517ZM235.239 19.3587C235.203 19.9293 235.15 20.4169 235.078 20.8209C234.936 21.7721 234.691 22.729 234.347 23.6919C234.002 24.6548 233.556 25.3503 233.009 25.7783C232.7 26.0163 232.355 26.135 231.975 26.135C231.57 26.135 231.213 25.9806 230.904 25.6713V23.6027C230.904 22.9134 230.892 22.2241 230.869 21.5342C231.059 20.7022 231.279 19.8284 231.529 18.9129C231.778 17.9978 232.046 17.1357 232.331 16.3272C232.617 15.5192 232.908 14.8649 233.205 14.3656C233.503 13.8663 233.794 13.6166 234.079 13.6166C234.555 13.6166 234.876 14.0268 235.043 14.8471C235.209 15.6674 235.292 16.5891 235.292 17.6111C235.292 18.2057 235.275 18.788 235.239 19.3587Z" fill="#C44E4F"/>
<path d="M249.758 15.9884C249.722 15.2394 249.615 14.4904 249.437 13.7415C249.259 12.9925 248.973 12.3684 248.581 11.8691C248.188 11.3698 247.635 11.1201 246.922 11.1201C246.351 11.1201 245.792 11.4829 245.245 12.2079C244.698 12.9335 244.198 13.8546 243.747 14.9719C243.295 16.0897 242.902 17.2427 242.57 18.4314C242.546 17.5994 242.534 16.8387 242.534 16.1489C242.534 15.4595 242.522 14.9006 242.498 14.4726C242.474 13.8307 242.403 13.2778 242.284 12.8142C242.165 12.3505 241.88 12.1187 241.428 12.1187H241.25C240.964 12.1427 240.655 12.2497 240.322 12.4397C239.989 12.6303 239.585 12.7963 239.109 12.9391C239.252 13.3436 239.4 13.9856 239.555 14.8649C239.71 15.7449 239.841 16.7908 239.947 18.0034C240.055 19.216 240.108 20.5239 240.108 21.9265V22.0691C240.108 23.0917 239.9 24.0251 239.484 24.8688C239.068 25.7131 238.693 26.6108 238.36 27.5615C238.123 28.2269 237.896 28.9285 237.682 29.6657C237.468 30.4024 237.302 31.1514 237.183 31.9126C237.088 32.4592 237.017 33.0121 236.969 33.571C236.921 34.1294 236.897 34.6588 236.897 35.1581C236.897 36.3467 237.07 37.3454 237.415 38.1539C237.76 38.9619 238.348 39.3665 239.181 39.3665H239.288C240.096 39.3665 240.738 38.9976 241.214 38.2609C241.689 37.5237 242.046 36.5724 242.284 35.4078C242.474 34.4565 242.605 33.2322 242.677 31.7343C242.7 31.3537 242.712 30.8605 242.712 30.2542V26.6699C243.069 26.9553 243.592 27.0979 244.282 27.0979C245.281 27.0979 246.131 26.807 246.833 26.2241C247.534 25.6418 248.105 24.8867 248.545 23.9594C248.985 23.0322 249.306 22.0335 249.508 20.9636C249.71 19.8937 249.812 18.8593 249.812 17.8608C249.812 17.3614 249.794 16.7373 249.758 15.9884ZM240.233 34.5517C240.173 35.5264 240.06 36.3228 239.894 36.9413C239.775 37.3927 239.638 37.7198 239.484 37.9221C239.329 38.1238 239.181 38.2252 239.038 38.2252C238.848 38.2252 238.663 38.0826 238.485 37.7973C238.307 37.5119 238.182 37.2026 238.11 36.8699C237.968 36.1088 237.896 35.3481 237.896 34.5874C237.896 33.6835 237.974 32.7864 238.128 31.8947C238.283 31.0031 238.479 30.1294 238.717 29.2734C238.907 28.5122 239.133 27.7872 239.395 27.0979C239.656 26.4085 239.894 25.8139 240.108 25.3146C240.155 26.0519 240.203 26.973 240.251 28.0787C240.298 29.1843 240.322 30.3194 240.322 31.4846C240.322 32.5546 240.292 33.5765 240.233 34.5517ZM247.011 19.3587C246.975 19.9293 246.922 20.4169 246.851 20.8209C246.708 21.7721 246.464 22.729 246.119 23.6919C245.774 24.6548 245.328 25.3503 244.781 25.7783C244.472 26.0163 244.127 26.135 243.747 26.135C243.342 26.135 242.985 25.9806 242.677 25.6713V23.6027C242.677 22.9134 242.664 22.2241 242.641 21.5342C242.831 20.7022 243.051 19.8284 243.301 18.9129C243.551 17.9978 243.818 17.1357 244.104 16.3272C244.389 15.5192 244.68 14.8649 244.978 14.3656C245.275 13.8663 245.566 13.6166 245.852 13.6166C246.327 13.6166 246.648 14.0268 246.815 14.8471C246.981 15.6674 247.065 16.5891 247.065 17.6111C247.065 18.2057 247.047 18.788 247.011 19.3587Z" fill="#C44E4F"/>
<path d="M4.34957 20.1637C1.39844 16.3621 2.09197 10.8911 5.89862 7.9438C8.71507 5.7632 12.4463 5.57567 15.3924 7.16512C16.9593 4.40247 19.9782 2.62166 23.3145 2.75091V1.45802C23.3145 0.652774 22.6609 0 21.8546 0H12.3723C11.566 0 10.9124 0.65278 10.9124 1.45802V2.92409H4.9426C2.53972 2.92408 0.591797 4.86944 0.591797 7.26917V23.3209C0.591797 25.7206 2.53972 27.666 4.9426 27.666H20.7188C17.9564 26.8608 6.92563 23.4822 4.34957 20.1637Z" fill="#143C5D"/>
<path d="M29.2843 2.92383H24.748C29.0715 3.80983 32.1102 7.8362 31.6627 12.3182C31.2214 16.74 22.7934 26.243 21.5114 27.6657H29.2843C31.6872 27.6657 33.6351 25.7204 33.6351 23.3206V7.26891C33.6351 4.86919 31.6872 2.92383 29.2843 2.92383Z" fill="#FFBB55"/>
<path d="M17.1134 22.0914C15.293 22.0914 13.5816 21.3827 12.2944 20.0958C11.0072 18.809 10.2983 17.098 10.2983 15.2781C10.2983 13.4582 11.0072 11.7472 12.2944 10.4604C13.5816 9.17354 15.293 8.46484 17.1134 8.46484C18.9338 8.46484 20.6453 9.17354 21.9325 10.4604C23.2197 11.7472 23.9286 13.4582 23.9286 15.2781C23.9286 17.098 23.2197 18.809 21.9325 20.0958C20.6453 21.3827 18.9338 22.0914 17.1134 22.0914ZM17.1134 10.508C14.4825 10.508 12.342 12.6479 12.342 15.2781C12.342 17.9084 14.4825 20.0482 17.1134 20.0482C19.7444 20.0482 21.8849 17.9083 21.8849 15.2781C21.8849 12.6479 19.7444 10.508 17.1134 10.508Z" fill="#C44E4F"/>
<path d="M25.3743 9.70395C26.1727 9.70395 26.8199 9.05689 26.8199 8.25871C26.8199 7.46053 26.1727 6.81348 25.3743 6.81348C24.5759 6.81348 23.9286 7.46053 23.9286 8.25871C23.9286 9.05689 24.5759 9.70395 25.3743 9.70395Z" fill="#C44E4F"/>
</g>
<defs>
<clipPath id="clip0_2002_445">
<rect width="249.22" height="40" fill="white" transform="translate(0.591797)"/>
</clipPath>
</defs>
</svg>
