<svg width="151" height="36" viewBox="0 0 151 36" fill="none" xmlns="http://www.w3.org/2000/svg">
<path d="M52.9775 23.0001C57.3006 23.0001 60.1711 20.9942 60.1711 17.5357C60.1711 14.0648 57.3189 12.9785 54.5807 12.1616L54.2654 12.0685C51.8548 11.3614 49.6228 10.8014 49.6228 8.92412C49.6228 7.43698 50.8333 6.50319 52.9429 6.50319C54.7759 6.50319 56.0901 7.26406 56.6781 8.88953L59.4794 7.78283C58.684 5.3619 56.2977 4.0131 52.9775 4.0131C48.9657 4.0131 46.3719 5.94984 46.3719 9.09704C46.3719 15.3569 56.851 13.3855 56.851 17.7778C56.851 19.4724 55.3639 20.4408 53.0813 20.4408C50.5566 20.4408 48.862 19.3341 48.274 17.4665L45.4727 18.5732C46.441 21.4783 49.2078 23.0001 52.9775 23.0001ZM79.9074 28.8103V4.39353H77.1753V7.78283C75.7227 5.43107 73.3018 4.0131 70.2583 4.0131C65.0706 4.0131 61.3701 8.09409 61.3701 13.5239C61.3701 18.9537 65.1744 23.0001 70.3275 23.0001C73.198 23.0001 75.5152 21.7204 76.9677 19.6108V28.8103H79.9074ZM70.6733 20.4062C67.0074 20.4062 64.2752 17.4665 64.2752 13.5239C64.2752 9.54664 67.0074 6.60695 70.6733 6.60695C74.4431 6.60695 77.0715 9.47748 77.0715 13.5239C77.0715 17.5703 74.4776 20.4062 70.6733 20.4062ZM90.6863 23.0001C93.3839 23.0001 95.5628 21.7204 96.7732 20.0258V22.6196H99.5746V4.39353H96.6349V15.841C96.6003 18.1582 94.5252 20.3716 91.4472 20.3716C88.3346 20.4062 86.3632 18.3657 86.3632 15.2877V4.39353H83.4235V15.6335C83.4235 19.9566 86.0174 23.0001 90.6863 23.0001ZM111.149 23.0001C114.227 23.0001 116.613 21.5475 117.997 19.1266V22.6196H120.729V4.39353H117.997V7.92117C116.613 5.56941 114.227 4.18602 111.149 4.18602C105.996 4.18602 102.191 8.09409 102.191 13.4893C102.191 18.9537 105.961 23.0001 111.149 23.0001ZM111.495 20.4062C107.829 20.4062 105.097 17.4665 105.097 13.4893C105.097 9.58123 107.829 6.60695 111.495 6.60695C115.299 6.60695 117.893 9.44289 117.893 13.4893C117.893 17.5703 115.264 20.4062 111.495 20.4062ZM127.427 22.6196V11.6217C127.427 9.02787 129.744 6.77987 133.064 6.74529V4.0131C130.505 4.0131 128.43 5.3619 127.254 7.05655V4.39353H124.487V22.6196H127.427ZM142.217 23.0347C146.541 23.0347 149.065 21.1671 150.414 18.5732L147.855 17.0169C146.956 19.1266 145.295 20.2679 142.321 20.2679C138.966 20.2679 136.303 17.9853 135.785 14.596H150.933C150.967 14.2502 151.002 13.6276 151.002 13.1089C151.002 8.3016 147.509 3.97852 142.01 3.97852C136.857 3.97852 132.81 8.23243 132.81 13.5239C132.81 18.9537 136.615 23.0347 142.217 23.0347ZM147.993 12.0367H135.819C136.373 8.57827 139.036 6.53778 142.114 6.53778C145.157 6.53778 147.543 8.61286 147.993 12.0367Z" fill="#143C5D"/>
<path d="M87.7496 33.7512C87.8442 33.7512 87.9441 33.7451 88.0495 33.7329C88.1549 33.7208 88.2697 33.7025 88.394 33.6782V33.3621H88.321C87.9779 33.3621 87.7334 33.3209 87.5875 33.2385C87.4416 33.1561 87.3267 33.0014 87.243 32.7744C87.2051 32.6798 87.1538 32.4887 87.089 32.2009C87.0241 31.9132 86.9458 31.695 86.8539 31.5464C86.7728 31.4113 86.6621 31.2985 86.5216 31.208C86.3811 31.1175 86.2068 31.0438 85.9987 30.9871C86.4446 30.8898 86.7796 30.7257 87.0039 30.4947C87.2281 30.2637 87.3402 29.9685 87.3402 29.6091C87.3402 29.1039 87.1768 28.729 86.8498 28.4844C86.5229 28.2399 86.0204 28.1176 85.3422 28.1176H83.2266V28.45L83.6967 28.4986L83.8385 28.6162V33.1878L83.6967 33.3053L83.2266 33.3459V33.6863H85.2003V33.3459L84.7261 33.3053L84.5843 33.1878V31.2141L84.6127 31.21C84.791 31.2019 84.9207 31.1978 85.0017 31.1978C85.3827 31.1978 85.6671 31.2627 85.8549 31.3924C86.0426 31.5221 86.1919 31.7558 86.3027 32.0935C86.3324 32.1827 86.3716 32.3178 86.4202 32.4988C86.5499 33.0014 86.7134 33.3391 86.9106 33.512C87.0052 33.5931 87.1207 33.6532 87.2572 33.6924C87.3936 33.7316 87.5577 33.7512 87.7496 33.7512ZM85.0423 30.8209C84.972 30.8209 84.8991 30.8202 84.8234 30.8189C84.7477 30.8175 84.668 30.8155 84.5843 30.8128V28.4986H84.9855C85.5232 28.4986 85.9123 28.5918 86.1527 28.7783C86.3932 28.9647 86.5135 29.2646 86.5135 29.678C86.5135 30.0779 86.3966 30.3684 86.1629 30.5494C85.9292 30.7304 85.5556 30.8209 85.0423 30.8209ZM89.8965 33.7593C90.164 33.7593 90.4302 33.7174 90.695 33.6336C90.9597 33.5499 91.2151 33.4269 91.4609 33.2648V32.8068C91.2124 32.9717 90.982 33.0932 90.7699 33.1716C90.5578 33.25 90.3532 33.2891 90.1559 33.2891C89.729 33.2891 89.3899 33.1372 89.1386 32.8332C88.8874 32.5292 88.7617 32.1165 88.7617 31.595V31.5018H91.4488C91.4542 31.4694 91.4576 31.4356 91.4589 31.4005C91.4603 31.3654 91.4609 31.314 91.4609 31.2465C91.4609 30.7412 91.3265 30.342 91.0577 30.0488C90.7888 29.7557 90.4248 29.6091 89.9654 29.6091C89.4034 29.6091 88.9434 29.8057 88.5854 30.1988C88.2274 30.5919 88.0484 31.0992 88.0484 31.7207C88.0484 32.3259 88.2193 32.817 88.5611 33.1939C88.9029 33.5708 89.348 33.7593 89.8965 33.7593ZM90.7193 31.1533H88.8023C88.8266 30.8155 88.9394 30.5365 89.1407 30.3163C89.342 30.0961 89.5804 29.986 89.856 29.986C90.137 29.986 90.3511 30.0752 90.4984 30.2535C90.6456 30.4318 90.7193 30.6885 90.7193 31.0236V31.1533ZM92.9513 33.7431C93.1459 33.7431 93.3546 33.6992 93.5775 33.6113C93.8004 33.5235 94.0456 33.3878 94.3131 33.204L94.4225 33.6863H95.5898V33.3864L95.1521 33.3459L95.0102 33.2121V30.8047C95.0102 30.3859 94.9116 30.0819 94.7143 29.8928C94.5171 29.7037 94.201 29.6091 93.766 29.6091C93.2715 29.6091 92.8683 29.6983 92.5562 29.8766C92.2441 30.0549 92.0881 30.2792 92.0881 30.5494C92.0881 30.6466 92.1063 30.7135 92.1428 30.75C92.1793 30.7865 92.2475 30.8047 92.3475 30.8047H92.9189V30.1076C93.0297 30.0644 93.1364 30.032 93.2391 30.0103C93.3418 29.9887 93.4458 29.9779 93.5512 29.9779C93.8322 29.9779 94.0294 30.0455 94.1429 30.1806C94.2564 30.3157 94.3131 30.5575 94.3131 30.906V31.1695C93.2783 31.418 92.6156 31.6437 92.3252 31.8463C92.0347 32.0489 91.8895 32.3272 91.8895 32.6812C91.8895 33 91.9861 33.2567 92.1793 33.4512C92.3724 33.6458 92.6298 33.7431 92.9513 33.7431ZM93.2837 33.2972C93.081 33.2972 92.9196 33.2358 92.7994 33.1128C92.6791 32.9899 92.619 32.8244 92.619 32.6164C92.619 32.357 92.7278 32.1476 92.9453 31.9882C93.1628 31.8287 93.6187 31.6531 94.3131 31.4613V32.9244C94.0942 33.0487 93.9004 33.1419 93.7315 33.204C93.5626 33.2662 93.4134 33.2972 93.2837 33.2972ZM97.6475 33.6863V33.3864L97.1734 33.3459L97.0234 33.2121V27.5786H96.7073L95.6941 27.8745V28.1339H96.3344V33.2121L96.1926 33.3459L95.7022 33.3864V33.6863H97.6475ZM104.114 33.6863V32.3327H103.684L103.542 33.1716L103.425 33.3053H101.2V30.979H102.562L102.679 31.1046L102.76 31.7045H103.153V29.8766H102.76L102.679 30.4805L102.562 30.598H101.2V28.4986H103.121L103.234 28.6243L103.352 29.3295H103.818V28.1176H99.8421V28.45L100.312 28.4986L100.454 28.6162V33.1878L100.312 33.3053L99.8421 33.3459V33.6863H104.114ZM105.499 33.7593C105.985 33.7593 106.365 33.6492 106.64 33.429C106.914 33.2088 107.051 32.9041 107.051 32.515C107.051 32.3664 107.024 32.2307 106.97 32.1077C106.916 31.9848 106.838 31.8828 106.735 31.8017C106.594 31.6855 106.367 31.5558 106.054 31.4126C105.965 31.3721 105.899 31.341 105.855 31.3194C105.58 31.187 105.393 31.0668 105.296 30.9587C105.199 30.8506 105.15 30.7196 105.15 30.5656C105.15 30.3765 105.211 30.2292 105.333 30.1238C105.454 30.0185 105.623 29.9658 105.839 29.9658C105.939 29.9658 106.039 29.9806 106.139 30.0103C106.239 30.0401 106.345 30.0846 106.455 30.1441L106.52 30.7318H106.929V29.7915C106.789 29.732 106.638 29.6868 106.478 29.6557C106.317 29.6246 106.143 29.6091 105.957 29.6091C105.489 29.6091 105.127 29.7104 104.871 29.9131C104.614 30.1157 104.486 30.4021 104.486 30.7723C104.486 31.0155 104.561 31.2195 104.711 31.3843C104.86 31.5491 105.144 31.7247 105.56 31.9112C105.927 32.0787 106.159 32.2171 106.257 32.3266C106.354 32.436 106.403 32.5745 106.403 32.742C106.403 32.9419 106.332 33.1034 106.19 33.2263C106.048 33.3493 105.86 33.4107 105.624 33.4107C105.506 33.4107 105.387 33.3945 105.27 33.3621C105.152 33.3297 105.035 33.2797 104.919 33.2121L104.818 32.5069H104.421V33.585C104.575 33.6444 104.743 33.6883 104.925 33.7167C105.108 33.7451 105.299 33.7593 105.499 33.7593ZM108.708 33.7106C108.878 33.7106 109.055 33.6951 109.239 33.664C109.422 33.633 109.609 33.5877 109.798 33.5283V33.2202C109.695 33.2446 109.596 33.2621 109.5 33.2729C109.404 33.2837 109.311 33.2891 109.222 33.2891C108.963 33.2891 108.783 33.2277 108.683 33.1047C108.583 32.9818 108.533 32.7406 108.533 32.3813V30.1927H109.798V29.8036H108.533V28.9201H108.225L107.869 29.6942L107.322 29.9333V30.1927H107.844V32.8717C107.844 33.1905 107.909 33.41 108.037 33.5303C108.165 33.6505 108.389 33.7106 108.708 33.7106ZM111.021 33.7431C111.215 33.7431 111.424 33.6992 111.647 33.6113C111.87 33.5235 112.115 33.3878 112.383 33.204L112.492 33.6863H113.659V33.3864L113.221 33.3459L113.08 33.2121V30.8047C113.08 30.3859 112.981 30.0819 112.784 29.8928C112.586 29.7037 112.27 29.6091 111.835 29.6091C111.341 29.6091 110.938 29.6983 110.626 29.8766C110.314 30.0549 110.157 30.2792 110.157 30.5494C110.157 30.6466 110.176 30.7135 110.212 30.75C110.249 30.7865 110.317 30.8047 110.417 30.8047H110.988V30.1076C111.099 30.0644 111.206 30.032 111.308 30.0103C111.411 29.9887 111.515 29.9779 111.621 29.9779C111.902 29.9779 112.099 30.0455 112.212 30.1806C112.326 30.3157 112.383 30.5575 112.383 30.906V31.1695C111.348 31.418 110.685 31.6437 110.395 31.8463C110.104 32.0489 109.959 32.3272 109.959 32.6812C109.959 33 110.055 33.2567 110.249 33.4512C110.442 33.6458 110.699 33.7431 111.021 33.7431ZM111.353 33.2972C111.15 33.2972 110.989 33.2358 110.869 33.1128C110.749 32.9899 110.688 32.8244 110.688 32.6164C110.688 32.357 110.797 32.1476 111.015 31.9882C111.232 31.8287 111.688 31.6531 112.383 31.4613V32.9244C112.164 33.0487 111.97 33.1419 111.801 33.204C111.632 33.2662 111.483 33.2972 111.353 33.2972ZM115.133 33.7106C115.304 33.7106 115.481 33.6951 115.664 33.664C115.848 33.633 116.034 33.5877 116.224 33.5283V33.2202C116.121 33.2446 116.022 33.2621 115.926 33.2729C115.83 33.2837 115.737 33.2891 115.648 33.2891C115.389 33.2891 115.209 33.2277 115.109 33.1047C115.009 32.9818 114.959 32.7406 114.959 32.3813V30.1927H116.224V29.8036H114.959V28.9201H114.651L114.294 29.6942L113.747 29.9333V30.1927H114.27V32.8717C114.27 33.1905 114.334 33.41 114.463 33.5303C114.591 33.6505 114.815 33.7106 115.133 33.7106ZM118.192 33.7593C118.46 33.7593 118.726 33.7174 118.991 33.6336C119.255 33.5499 119.511 33.4269 119.757 33.2648V32.8068C119.508 32.9717 119.278 33.0932 119.066 33.1716C118.853 33.25 118.649 33.2891 118.452 33.2891C118.025 33.2891 117.686 33.1372 117.434 32.8332C117.183 32.5292 117.057 32.1165 117.057 31.595V31.5018H119.744C119.75 31.4694 119.753 31.4356 119.755 31.4005C119.756 31.3654 119.757 31.314 119.757 31.2465C119.757 30.7412 119.622 30.342 119.353 30.0488C119.084 29.7557 118.72 29.6091 118.261 29.6091C117.699 29.6091 117.239 29.8057 116.881 30.1988C116.523 30.5919 116.344 31.0992 116.344 31.7207C116.344 32.3259 116.515 32.817 116.857 33.1939C117.199 33.5708 117.644 33.7593 118.192 33.7593ZM119.015 31.1533H117.098C117.122 30.8155 117.235 30.5365 117.436 30.3163C117.638 30.0961 117.876 29.986 118.152 29.986C118.433 29.986 118.647 30.0752 118.794 30.2535C118.941 30.4318 119.015 30.6885 119.015 31.0236V31.1533ZM123.86 33.7876C124.508 33.7876 125.029 33.6343 125.42 33.3276C125.812 33.021 126.008 32.6177 126.008 32.1178C126.008 31.9368 125.978 31.7693 125.917 31.6153C125.856 31.4613 125.765 31.3248 125.643 31.2059C125.43 30.9952 125.081 30.7953 124.598 30.6061C124.506 30.571 124.437 30.544 124.391 30.5251C123.899 30.317 123.582 30.1394 123.441 29.9921C123.299 29.8449 123.228 29.6591 123.228 29.4348C123.228 29.1268 123.329 28.883 123.532 28.7033C123.734 28.5236 124.009 28.4338 124.354 28.4338C124.5 28.4338 124.635 28.448 124.76 28.4763C124.884 28.5047 124.999 28.5486 125.104 28.608L125.226 28.7458L125.351 29.5362H125.785V28.2514C125.542 28.173 125.304 28.1143 125.07 28.0751C124.836 28.0359 124.603 28.0163 124.371 28.0163C123.792 28.0163 123.328 28.1629 122.979 28.4561C122.629 28.7492 122.454 29.1336 122.454 29.6091C122.454 29.9469 122.546 30.2218 122.729 30.4339C122.913 30.646 123.289 30.875 123.856 31.1208C123.902 31.1398 123.968 31.1681 124.055 31.2059C124.849 31.5437 125.246 31.9247 125.246 32.3489C125.246 32.6542 125.133 32.8967 124.908 33.0764C124.682 33.256 124.376 33.3459 123.99 33.3459C123.806 33.3459 123.636 33.3297 123.479 33.2972C123.322 33.2648 123.183 33.2175 123.062 33.1554L122.952 33.0135L122.855 32.0611H122.364V33.5201C122.562 33.6066 122.788 33.6728 123.043 33.7187C123.299 33.7647 123.571 33.7876 123.86 33.7876ZM128.439 33.7593C129.001 33.7593 129.463 33.5654 129.827 33.1777C130.19 32.79 130.372 32.2921 130.372 31.6842C130.372 31.0763 130.191 30.5784 129.829 30.1907C129.467 29.803 129.003 29.6091 128.439 29.6091C127.871 29.6091 127.409 29.8023 127.051 30.1887C126.693 30.575 126.514 31.0736 126.514 31.6842C126.514 32.2948 126.694 32.7933 127.055 33.1797C127.415 33.5661 127.877 33.7593 128.439 33.7593ZM128.439 33.4026C128.096 33.4026 127.819 33.2466 127.608 32.9345C127.397 32.6224 127.292 32.2057 127.292 31.6842C127.292 31.1627 127.396 30.7459 127.606 30.4339C127.815 30.1218 128.093 29.9658 128.439 29.9658C128.785 29.9658 129.064 30.1225 129.276 30.4359C129.488 30.7493 129.594 31.1654 129.594 31.6842C129.594 32.2084 129.488 32.6258 129.278 32.9365C129.067 33.2473 128.787 33.4026 128.439 33.4026ZM132.58 33.6863V33.3864L132.105 33.3459L131.956 33.2121V27.5786H131.639L130.626 27.8745V28.1339H131.267V33.2121L131.125 33.3459L130.634 33.3864V33.6863H132.58ZM134.386 33.7674C134.583 33.7674 134.792 33.7228 135.012 33.6336C135.233 33.5445 135.472 33.4067 135.732 33.2202V33.6863H136.96V33.3864L136.571 33.3459L136.421 33.2121V29.6091H136.105L135.14 29.9171V30.1765H135.732V32.9892C135.559 33.073 135.393 33.1351 135.235 33.1757C135.077 33.2162 134.921 33.2364 134.767 33.2364C134.492 33.2364 134.289 33.1655 134.159 33.0237C134.03 32.8818 133.965 32.6596 133.965 32.357V29.6091H133.649L132.684 29.9171V30.1765H133.276V32.4988C133.276 32.9095 133.371 33.2236 133.561 33.4411C133.752 33.6586 134.027 33.7674 134.386 33.7674ZM138.507 33.7106C138.677 33.7106 138.854 33.6951 139.038 33.664C139.222 33.633 139.408 33.5877 139.597 33.5283V33.2202C139.494 33.2446 139.395 33.2621 139.299 33.2729C139.203 33.2837 139.111 33.2891 139.022 33.2891C138.762 33.2891 138.583 33.2277 138.483 33.1047C138.383 32.9818 138.333 32.7406 138.333 32.3813V30.1927H139.597V29.8036H138.333V28.9201H138.025L137.668 29.6942L137.121 29.9333V30.1927H137.644V32.8717C137.644 33.1905 137.708 33.41 137.836 33.5303C137.964 33.6505 138.188 33.7106 138.507 33.7106ZM140.686 28.7661C140.821 28.7661 140.936 28.7202 141.029 28.6283C141.122 28.5364 141.169 28.4243 141.169 28.2919C141.169 28.1595 141.122 28.046 141.029 27.9515C140.936 27.8569 140.821 27.8096 140.686 27.8096C140.554 27.8096 140.441 27.8562 140.348 27.9495C140.255 28.0427 140.208 28.1568 140.208 28.2919C140.208 28.4243 140.255 28.5364 140.348 28.6283C140.441 28.7202 140.554 28.7661 140.686 28.7661ZM141.566 33.6863V33.3864L141.12 33.3459L140.978 33.2121V29.6537H140.654L139.701 29.9496V30.2089H140.281V33.2121L140.139 33.3459L139.701 33.3864V33.6863H141.566ZM143.688 33.7593C144.25 33.7593 144.713 33.5654 145.076 33.1777C145.44 32.79 145.622 32.2921 145.622 31.6842C145.622 31.0763 145.441 30.5784 145.079 30.1907C144.716 29.803 144.253 29.6091 143.688 29.6091C143.121 29.6091 142.658 29.8023 142.3 30.1887C141.942 30.575 141.763 31.0736 141.763 31.6842C141.763 32.2948 141.944 32.7933 142.304 33.1797C142.665 33.5661 143.126 33.7593 143.688 33.7593ZM143.688 33.4026C143.345 33.4026 143.068 33.2466 142.858 32.9345C142.647 32.6224 142.541 32.2057 142.541 31.6842C142.541 31.1627 142.646 30.7459 142.856 30.4339C143.065 30.1218 143.343 29.9658 143.688 29.9658C144.034 29.9658 144.313 30.1225 144.525 30.4359C144.737 30.7493 144.843 31.1654 144.843 31.6842C144.843 32.2084 144.738 32.6258 144.527 32.9365C144.317 33.2473 144.037 33.4026 143.688 33.4026ZM147.72 33.6863V33.3864L147.323 33.3459L147.181 33.2121V30.4318C147.359 30.34 147.525 30.2718 147.679 30.2272C147.833 30.1826 147.977 30.1603 148.109 30.1603C148.412 30.1603 148.627 30.2251 148.755 30.3548C148.884 30.4845 148.948 30.7047 148.948 31.0155V33.2121L148.806 33.3459L148.409 33.3864V33.6863H150.225V33.3864L149.779 33.3459L149.637 33.2121V30.8736C149.637 30.4629 149.541 30.1495 149.349 29.9333C149.157 29.7172 148.88 29.6091 148.518 29.6091C148.364 29.6091 148.186 29.6463 147.983 29.7206C147.781 29.7949 147.513 29.9239 147.181 30.1076V29.6537H146.865L145.9 29.9496V30.2089H146.492V33.2121L146.35 33.3459L145.9 33.3864V33.6863H147.72Z" fill="#143C5D"/>
<path fill-rule="evenodd" clip-rule="evenodd" d="M0.40625 0.485352H34.9909V35.07H0.40625V0.485352ZM26.1464 9.3295L9.24892 9.32769V26.2268L9.24332 26.232L9.24349 26.2332H26.1541L26.1528 9.32349L26.152 9.32334L26.1464 9.3295Z" fill="#143C5D"/>
</svg>
