<svg width="136" height="35" viewBox="0 0 136 35" fill="none" xmlns="http://www.w3.org/2000/svg">
<path d="M44.8678 21.4837V10.2135C44.8678 9.55366 44.815 8.20317 44.7094 6.16204L46.1215 11.1109L49.4735 21.4837H52.2449L55.5969 11.1109C55.6468 10.9555 55.7011 10.7801 55.76 10.5849L55.8329 10.341C56.1205 9.36946 56.5037 7.97648 56.9826 6.16204C56.9034 8.0976 56.8616 9.19295 56.8572 9.44809C56.8528 9.70323 56.8506 9.95837 56.8506 10.2135V21.4837H60.3082V2.88919H55.1218L51.7038 13.8031L50.8724 16.7856L50.2389 14.2914L49.9486 13.2884L46.623 2.88919H41.4102V21.4837H44.8678ZM67.2793 21.7477C69.3732 21.7477 70.9392 20.8107 71.9774 18.9367H72.0566C72.1445 19.8253 72.4107 20.4984 72.855 20.9559C73.2993 21.4134 73.9877 21.6421 74.9203 21.6421C75.1842 21.6421 75.4152 21.6333 75.6132 21.6157C75.8111 21.5981 75.9981 21.5761 76.174 21.5497C76.35 21.5233 76.5259 21.4881 76.7019 21.4441C76.8779 21.4002 77.0758 21.3518 77.2958 21.299V19.293C77.0318 19.3458 76.7591 19.3722 76.4776 19.3722C76.0552 19.3722 75.7539 19.2205 75.5736 18.9169C75.3932 18.6134 75.303 18.0613 75.303 17.2607V12.0611C75.303 10.4247 74.8147 9.16215 73.8382 8.27356C72.8616 7.38496 71.4715 6.94066 69.6679 6.94066C67.8819 6.94066 66.472 7.29918 65.4383 8.01622C64.4045 8.73325 63.7689 9.78681 63.5313 11.1769L67.398 11.3617C67.4772 10.6402 67.6774 10.1233 67.9985 9.81101C68.3196 9.49868 68.8233 9.34251 69.5095 9.34251C70.2486 9.34251 70.7809 9.56906 71.1064 10.0222C71.4319 10.4753 71.5947 11.1681 71.5947 12.1007V12.8265L68.5198 12.8793C66.6898 12.8969 65.2931 13.2928 64.3297 14.067C63.3663 14.8413 62.8847 15.9674 62.8847 17.4455C62.8847 18.8091 63.2718 19.8671 64.046 20.6193C64.8202 21.3716 65.898 21.7477 67.2793 21.7477ZM68.467 19.1611C67.9479 19.1611 67.5322 18.9961 67.2199 18.6662C66.9075 18.3363 66.7514 17.8326 66.7514 17.1551C66.7514 16.6272 66.846 16.2049 67.0351 15.8882C67.2243 15.5715 67.4992 15.3361 67.8599 15.1822C68.2206 15.0282 68.8321 14.9336 69.6943 14.8984L71.5947 14.872V15.5979C71.5947 16.2225 71.4583 16.8142 71.1856 17.3729C70.9128 17.9315 70.5367 18.3692 70.0572 18.686C69.5777 19.0027 69.0476 19.1611 68.467 19.1611ZM82.6963 21.4837V14.4761C82.6963 13.0069 82.9537 11.8983 83.4684 11.1505C83.983 10.4027 84.7023 10.0288 85.6261 10.0288C86.0836 10.0288 86.6114 10.0947 87.2097 10.2267V7.12542C86.9194 6.99345 86.5367 6.92746 86.0616 6.92746C85.4809 6.92746 84.997 7.02644 84.6099 7.2244C84.2228 7.42235 83.8885 7.72588 83.6069 8.13499C83.3254 8.5441 83.0043 9.25013 82.6436 10.2531H82.5908C82.5908 9.98917 82.5688 9.45469 82.5248 8.64967C82.4808 7.84466 82.4456 7.36297 82.4192 7.2046H78.8824C78.9088 7.60931 78.933 8.0734 78.955 8.59688C78.977 9.12036 78.988 9.77361 78.988 10.5566V21.4837H82.6963ZM93.1382 21.7213C94.3083 21.7213 95.3509 21.5717 96.2659 21.2726V18.9763C95.7292 19.0995 95.3157 19.1611 95.0253 19.1611C94.4711 19.1611 94.062 18.9961 93.798 18.6662C93.5341 18.3363 93.4021 17.8238 93.4021 17.1287V9.71203H96.1075V7.2046H93.4021V3.85257H91.0794L89.9181 7.2046H87.9254V9.71203H89.7333V18.1317C89.7333 19.337 90.0281 20.2366 90.6175 20.8305C91.207 21.4244 92.0472 21.7213 93.1382 21.7213ZM102.168 4.63119V1.89941H98.4596V4.63119H102.168ZM102.168 21.4837V7.2046H98.4596V21.4837H102.168ZM109.654 21.4837V13.8295C109.654 12.6242 109.929 11.6366 110.478 10.8668C111.028 10.0969 111.752 9.71203 112.649 9.71203C114.347 9.71203 115.196 10.9657 115.196 13.4732V21.4837H118.892V12.4174C118.892 10.6226 118.487 9.25893 117.677 8.32634C116.868 7.39376 115.707 6.92746 114.193 6.92746C113.146 6.92746 112.245 7.17381 111.488 7.6665C110.731 8.15918 110.102 8.951 109.601 10.042H109.548C109.548 9.76922 109.526 9.26993 109.482 8.5441C109.438 7.81826 109.403 7.37176 109.376 7.2046H105.84C105.866 7.59171 105.89 8.02941 105.912 8.5177C105.934 9.00599 105.945 9.63285 105.945 10.3983V21.4837H109.654ZM128.739 21.7477C131.009 21.7477 132.787 21.09 134.071 19.7747C135.356 18.4594 135.998 16.6448 135.998 14.331C135.998 11.9467 135.384 10.1189 134.157 8.84763C132.929 7.57632 131.15 6.94066 128.819 6.94066C126.54 6.94066 124.767 7.59831 123.5 8.91361C122.233 10.2289 121.6 12.0347 121.6 14.331C121.6 16.636 122.233 18.4484 123.5 19.7681C124.767 21.0878 126.514 21.7477 128.739 21.7477ZM128.7 19.2139C127.662 19.2139 126.868 18.7982 126.318 17.9667C125.768 17.1353 125.493 15.9234 125.493 14.331C125.493 11.1021 126.619 9.48768 128.871 9.48768C129.927 9.48768 130.732 9.87039 131.286 10.6358C131.841 11.4012 132.118 12.633 132.118 14.331C132.118 17.5862 130.979 19.2139 128.7 19.2139Z" fill="#143C5D"/>
<path opacity="0.595853" d="M78.1684 33.1284C78.4499 33.1284 78.7107 33.0834 78.9507 32.9934C79.1907 32.9034 79.3926 32.7834 79.5564 32.6334C79.7203 32.4834 79.8564 32.3311 79.9649 32.1765C80.0734 32.0218 80.1622 31.8615 80.2314 31.6953L79.4145 31.4392C79.313 31.693 79.1503 31.9076 78.9264 32.083C78.7026 32.2584 78.4453 32.3461 78.1545 32.3461C77.7068 32.3461 77.3492 32.1591 77.0815 31.7853C76.8138 31.4115 76.6799 30.9038 76.6799 30.2622C76.6799 29.6299 76.8126 29.1257 77.078 28.7496C77.3434 28.3734 77.7022 28.1853 78.1545 28.1853C78.6299 28.1853 79.0153 28.4507 79.3107 28.9815L80.093 28.7253C79.9314 28.3515 79.6857 28.0376 79.3557 27.7838C79.0257 27.53 78.6299 27.403 78.1684 27.403C77.453 27.403 76.8692 27.6603 76.4169 28.175C75.9646 28.6896 75.7384 29.3853 75.7384 30.2622C75.7384 31.153 75.968 31.8534 76.4272 32.3634C76.8865 32.8734 77.4668 33.1284 78.1684 33.1284ZM82.4814 33.1284C82.7583 33.1284 83.0064 33.0822 83.2256 32.9899C83.4449 32.8976 83.6214 32.7788 83.7552 32.6334C83.8891 32.488 83.9999 32.3195 84.0876 32.128C84.1752 31.9365 84.2364 31.7484 84.271 31.5638C84.3056 31.3792 84.3229 31.1945 84.3229 31.0099C84.3229 30.4145 84.166 29.9115 83.8522 29.5007C83.5383 29.0899 83.0814 28.8846 82.4814 28.8846C81.8768 28.8846 81.4176 29.0899 81.1037 29.5007C80.7899 29.9115 80.633 30.4145 80.633 31.0099C80.633 31.2038 80.6503 31.3942 80.6849 31.5811C80.7195 31.768 80.7818 31.9572 80.8718 32.1488C80.9618 32.3403 81.0749 32.5065 81.211 32.6472C81.3472 32.788 81.5249 32.9034 81.7441 32.9934C81.9633 33.0834 82.2091 33.1284 82.4814 33.1284ZM82.4814 32.3807C82.2276 32.3807 82.006 32.2676 81.8168 32.0415C81.6276 31.8153 81.533 31.4715 81.533 31.0099C81.533 30.5392 81.6287 30.1919 81.8203 29.968C82.0118 29.7442 82.2322 29.6322 82.4814 29.6322C82.7306 29.6322 82.9499 29.7442 83.1391 29.968C83.3283 30.1919 83.4229 30.5392 83.4229 31.0099C83.4229 31.4715 83.3283 31.8153 83.1391 32.0415C82.9499 32.2676 82.7306 32.3807 82.4814 32.3807ZM85.9914 33.0038V27.3477H85.1191V33.0038H85.9914ZM88.636 33.1284C88.9129 33.1284 89.161 33.0822 89.3802 32.9899C89.5994 32.8976 89.776 32.7788 89.9098 32.6334C90.0436 32.488 90.1544 32.3195 90.2421 32.128C90.3298 31.9365 90.391 31.7484 90.4256 31.5638C90.4602 31.3792 90.4775 31.1945 90.4775 31.0099C90.4775 30.4145 90.3206 29.9115 90.0067 29.5007C89.6929 29.0899 89.236 28.8846 88.636 28.8846C88.0314 28.8846 87.5721 29.0899 87.2583 29.5007C86.9444 29.9115 86.7875 30.4145 86.7875 31.0099C86.7875 31.2038 86.8048 31.3942 86.8394 31.5811C86.8741 31.768 86.9364 31.9572 87.0264 32.1488C87.1164 32.3403 87.2294 32.5065 87.3656 32.6472C87.5017 32.788 87.6794 32.9034 87.8987 32.9934C88.1179 33.0834 88.3637 33.1284 88.636 33.1284ZM88.636 32.3807C88.3821 32.3807 88.1606 32.2676 87.9714 32.0415C87.7821 31.8153 87.6875 31.4715 87.6875 31.0099C87.6875 30.5392 87.7833 30.1919 87.9748 29.968C88.1664 29.7442 88.3867 29.6322 88.636 29.6322C88.8852 29.6322 89.1044 29.7442 89.2937 29.968C89.4829 30.1919 89.5775 30.5392 89.5775 31.0099C89.5775 31.4715 89.4829 31.8153 89.2937 32.0415C89.1044 32.2676 88.8852 32.3807 88.636 32.3807ZM92.0767 33.0038V30.9684C92.0767 30.5807 92.1563 30.2703 92.3155 30.0372C92.4748 29.8042 92.7044 29.6876 93.0044 29.6876C93.1752 29.6876 93.3482 29.7153 93.5236 29.7707V28.9746C93.3898 28.9146 93.2167 28.8846 93.0044 28.8846C92.7782 28.8846 92.5832 28.9399 92.4194 29.0507C92.2555 29.1615 92.1298 29.2907 92.0421 29.4384V29.0092H91.1975V33.0038H92.0767ZM95.4136 33.1284C95.9167 33.1284 96.3055 33.0141 96.5801 32.7857C96.8547 32.5572 96.992 32.2791 96.992 31.9515C96.992 31.4207 96.5813 31.0238 95.7597 30.7607C95.7367 30.7515 95.6997 30.7399 95.649 30.7261C95.4551 30.6615 95.3051 30.6084 95.199 30.5669C95.0928 30.5253 94.9901 30.4595 94.8909 30.3695C94.7917 30.2796 94.7421 30.1769 94.7421 30.0615C94.7421 29.923 94.7986 29.8111 94.9117 29.7257C95.0247 29.6403 95.1874 29.5976 95.3997 29.5976C95.7874 29.5976 96.1174 29.7846 96.3897 30.1584L96.9713 29.8053C96.8282 29.5376 96.6113 29.3173 96.3205 29.1442C96.0297 28.9711 95.7205 28.8846 95.3928 28.8846C94.9544 28.8846 94.5874 28.9907 94.2921 29.203C93.9967 29.4153 93.849 29.6969 93.849 30.0476C93.849 30.2276 93.8813 30.3857 93.9459 30.5219C94.0105 30.658 94.1051 30.7711 94.2298 30.8611C94.3544 30.9511 94.4732 31.0226 94.5863 31.0757C94.6994 31.1288 94.839 31.183 95.0051 31.2384C95.0236 31.243 95.0536 31.2522 95.0951 31.2661C95.3259 31.3399 95.499 31.3988 95.6144 31.4426C95.7297 31.4865 95.8394 31.5522 95.9432 31.6399C96.047 31.7276 96.099 31.8292 96.099 31.9445C96.099 32.0876 96.0355 32.2018 95.9086 32.2872C95.7817 32.3726 95.6097 32.4153 95.3928 32.4153C94.9498 32.4153 94.5898 32.2122 94.3128 31.8061L93.6828 32.173C93.8444 32.4684 94.0763 32.7014 94.3786 32.8722C94.6809 33.043 95.0259 33.1284 95.4136 33.1284ZM101.028 33.1284C101.305 33.1284 101.553 33.0822 101.772 32.9899C101.992 32.8976 102.168 32.7788 102.302 32.6334C102.436 32.488 102.547 32.3195 102.634 32.128C102.722 31.9365 102.783 31.7484 102.818 31.5638C102.852 31.3792 102.87 31.1945 102.87 31.0099C102.87 30.4145 102.713 29.9115 102.399 29.5007C102.085 29.0899 101.628 28.8846 101.028 28.8846C100.424 28.8846 99.9643 29.0899 99.6505 29.5007C99.3366 29.9115 99.1797 30.4145 99.1797 31.0099C99.1797 31.2038 99.197 31.3942 99.2316 31.5811C99.2662 31.768 99.3286 31.9572 99.4186 32.1488C99.5086 32.3403 99.6216 32.5065 99.7578 32.6472C99.8939 32.788 100.072 32.9034 100.291 32.9934C100.51 33.0834 100.756 33.1284 101.028 33.1284ZM101.028 32.3807C100.774 32.3807 100.553 32.2676 100.364 32.0415C100.174 31.8153 100.08 31.4715 100.08 31.0099C100.08 30.5392 100.175 30.1919 100.367 29.968C100.559 29.7442 100.779 29.6322 101.028 29.6322C101.277 29.6322 101.497 29.7442 101.686 29.968C101.875 30.1919 101.97 30.5392 101.97 31.0099C101.97 31.4715 101.875 31.8153 101.686 32.0415C101.497 32.2676 101.277 32.3807 101.028 32.3807ZM104.774 33.0038V29.7569H105.604V29.0092H104.774V28.6423C104.774 28.4484 104.807 28.3076 104.874 28.22C104.941 28.1323 105.046 28.0884 105.189 28.0884H105.694V27.3477H105.064C104.69 27.3477 104.401 27.4503 104.195 27.6557C103.99 27.8611 103.887 28.1692 103.887 28.58V29.0092H103.278V29.7569H103.887V33.0038H104.774ZM108.159 34.6376C108.505 34.6376 108.795 34.5545 109.028 34.3884C109.261 34.2222 109.451 33.9361 109.599 33.5299L111.253 29.0092H110.298L109.668 31.0653C109.52 31.5961 109.435 31.903 109.412 31.9861H109.384C109.324 31.7507 109.237 31.4438 109.121 31.0653L108.436 29.0092H107.473L108.969 32.9068L108.837 33.3014C108.759 33.523 108.654 33.6787 108.522 33.7687C108.391 33.8587 108.221 33.9037 108.013 33.9037H107.889V34.6376H108.159ZM113.4 33.1284C113.676 33.1284 113.925 33.0822 114.144 32.9899C114.363 32.8976 114.54 32.7788 114.673 32.6334C114.807 32.488 114.918 32.3195 115.006 32.128C115.093 31.9365 115.155 31.7484 115.189 31.5638C115.224 31.3792 115.241 31.1945 115.241 31.0099C115.241 30.4145 115.084 29.9115 114.77 29.5007C114.456 29.0899 114 28.8846 113.4 28.8846C112.795 28.8846 112.336 29.0899 112.022 29.5007C111.708 29.9115 111.551 30.4145 111.551 31.0099C111.551 31.2038 111.568 31.3942 111.603 31.5811C111.638 31.768 111.7 31.9572 111.79 32.1488C111.88 32.3403 111.993 32.5065 112.129 32.6472C112.265 32.788 112.443 32.9034 112.662 32.9934C112.881 33.0834 113.127 33.1284 113.4 33.1284ZM113.4 32.3807C113.146 32.3807 112.924 32.2676 112.735 32.0415C112.546 31.8153 112.451 31.4715 112.451 31.0099C112.451 30.5392 112.547 30.1919 112.738 29.968C112.93 29.7442 113.15 29.6322 113.4 29.6322C113.649 29.6322 113.868 29.7442 114.057 29.968C114.246 30.1919 114.341 30.5392 114.341 31.0099C114.341 31.4715 114.246 31.8153 114.057 32.0415C113.868 32.2676 113.649 32.3807 113.4 32.3807ZM117.256 33.1284C117.528 33.1284 117.755 33.0661 117.938 32.9414C118.12 32.8168 118.243 32.683 118.308 32.5399H118.315V33.0038H119.16V29.0092H118.287V31.2453C118.287 31.5545 118.213 31.8211 118.066 32.0449C117.918 32.2688 117.713 32.3807 117.45 32.3807C117.011 32.3807 116.792 32.0691 116.792 31.4461V29.0092H115.913V31.5568C115.913 31.8568 115.954 32.1153 116.037 32.3322C116.12 32.5491 116.231 32.7118 116.37 32.8203C116.508 32.9288 116.65 33.0072 116.795 33.0557C116.941 33.1041 117.094 33.1284 117.256 33.1284ZM120.994 33.0038V30.9684C120.994 30.5807 121.074 30.2703 121.233 30.0372C121.392 29.8042 121.622 29.6876 121.922 29.6876C122.093 29.6876 122.266 29.7153 122.441 29.7707V28.9746C122.307 28.9146 122.134 28.8846 121.922 28.8846C121.696 28.8846 121.501 28.9399 121.337 29.0507C121.173 29.1615 121.047 29.2907 120.959 29.4384V29.0092H120.115V33.0038H120.994ZM125.577 33.0038V27.3477H124.705V33.0038H125.577ZM127.592 28.4138V27.4515H126.65V28.4138H127.592ZM127.557 33.0038V29.0092H126.692V33.0038H127.557ZM129.779 33.0038V29.7569H130.61V29.0092H129.779V28.6423C129.779 28.4484 129.813 28.3076 129.88 28.22C129.947 28.1323 130.052 28.0884 130.195 28.0884H130.7V27.3477H130.07C129.696 27.3477 129.407 27.4503 129.201 27.6557C128.996 27.8611 128.893 28.1692 128.893 28.58V29.0092H128.284V29.7569H128.893V33.0038H129.779ZM132.846 33.1284C133.28 33.1284 133.642 33.0291 133.933 32.8307C134.224 32.6322 134.434 32.3853 134.563 32.0899L133.829 31.8407C133.742 32.0115 133.614 32.1511 133.445 32.2595C133.277 32.368 133.082 32.4222 132.86 32.4222C132.542 32.4222 132.291 32.3126 132.109 32.0934C131.927 31.8741 131.836 31.6122 131.836 31.3076H134.605C134.619 31.1922 134.626 31.0745 134.626 30.9545C134.626 30.3407 134.455 29.8422 134.113 29.4592C133.772 29.0761 133.338 28.8846 132.812 28.8846C132.276 28.8846 131.832 29.0749 131.479 29.4557C131.126 29.8365 130.949 30.3476 130.949 30.9892C130.949 31.6399 131.126 32.1591 131.479 32.5468C131.832 32.9345 132.288 33.1284 132.846 33.1284ZM133.732 30.6915H131.849C131.854 30.3961 131.943 30.1388 132.116 29.9196C132.289 29.7003 132.521 29.5907 132.812 29.5907C133.102 29.5907 133.329 29.698 133.49 29.9126C133.652 30.1272 133.732 30.3869 133.732 30.6915Z" fill="#143C5D"/>
<path d="M8.58468 5.12965L8.58468 32.7015C8.58455 32.9654 8.44866 33.2095 8.2274 33.3433C8.00615 33.4772 7.73253 33.4808 7.50802 33.3528L0.982764 29.6269C0.752449 29.4956 0.60951 29.2462 0.609375 28.9756L0.609375 1.40372C0.609507 1.13986 0.745398 0.895737 0.966652 0.761898C1.18791 0.628059 1.46153 0.624458 1.68604 0.752434L8.21129 4.47836C8.44161 4.60964 8.58455 4.85896 8.58468 5.12965Z" fill="#143C5D"/>
<path d="M19.2175 5.13063L19.2175 32.7025C19.2174 32.9663 19.0815 33.2105 18.8602 33.3443C18.639 33.4781 18.3653 33.4817 18.1408 33.3538L11.6156 29.6278C11.3853 29.4965 11.2423 29.2472 11.2422 28.9765L11.2422 1.4047C11.2423 1.14083 11.3782 0.896713 11.5995 0.762875C11.8207 0.629036 12.0943 0.625435 12.3189 0.75341L18.8441 4.47934C19.0744 4.61062 19.2174 4.85994 19.2175 5.13063Z" fill="#143C5D"/>
<path d="M29.8503 5.13063L29.8503 32.7025C29.8502 32.9663 29.7143 33.2105 29.493 33.3443C29.2718 33.4781 28.9982 33.4817 28.7736 33.3538L22.2484 29.6278C22.0181 29.4965 21.8751 29.2472 21.875 28.9765L21.875 1.4047C21.8751 1.14083 22.011 0.896713 22.2323 0.762875C22.4535 0.629036 22.7272 0.625435 22.9517 0.75341L29.4769 4.47934C29.7072 4.61062 29.8502 4.85994 29.8503 5.13063Z" fill="#143C5D"/>
</svg>
