<svg width="24" height="24" viewBox="0 0 24 24" fill="none" xmlns="http://www.w3.org/2000/svg">
<g clip-path="url(#clip0_2037_151)">
<path d="M9.7629 9.44729V8.51678C9.43964 8.47798 9.11638 8.45215 8.78016 8.45215C4.77155 8.45215 1.5 11.709 1.5 15.7284C1.5 18.184 2.72844 20.3681 4.60344 21.6864C3.38793 20.3811 2.65086 18.6493 2.65086 16.7365C2.66379 12.7688 5.83189 9.5378 9.7629 9.44729Z" fill="#00FAF0"/>
<path d="M9.93086 20.0323C11.7153 20.0323 13.1765 18.6106 13.2412 16.84V1.00808H16.1378C16.0731 0.684976 16.0472 0.348949 16.0472 0H12.0903V15.832C12.0257 17.6026 10.5645 19.0242 8.78001 19.0242C8.22395 19.0242 7.69378 18.8821 7.24121 18.6365C7.84892 19.4895 8.83172 20.0323 9.93086 20.0323Z" fill="#00FAF0"/>
<path d="M21.5557 6.38487V5.50601C20.4565 5.50601 19.422 5.18291 18.5557 4.61426C19.3315 5.49309 20.3789 6.12636 21.5557 6.38487Z" fill="#00FAF0"/>
<path d="M18.5684 4.61461C17.7279 3.6453 17.2107 2.39167 17.2107 1.00879H16.1504C16.4348 2.50799 17.3271 3.80039 18.5684 4.61461Z" fill="#FF0050"/>
<path d="M8.78034 12.3939C6.94411 12.3939 5.45703 13.8802 5.45703 15.7154C5.45703 16.9949 6.18117 18.0935 7.24154 18.6492C6.85359 18.1064 6.60789 17.4343 6.60789 16.7106C6.60789 14.8754 8.09497 13.3891 9.93119 13.3891C10.2674 13.3891 10.6036 13.4408 10.9139 13.5442V9.51189C10.5907 9.47309 10.2674 9.44727 9.93119 9.44727C9.87948 9.44727 9.81479 9.44727 9.76308 9.44727V12.549C9.45274 12.4457 9.12948 12.3939 8.78034 12.3939Z" fill="#FF0050"/>
<path d="M21.5559 6.38477V9.46064C19.4998 9.46064 17.6119 8.80156 16.0602 7.69008V15.7159C16.0602 19.7224 12.8016 22.9922 8.78003 22.9922C7.22826 22.9922 5.79293 22.5011 4.61621 21.6739C5.94811 23.0956 7.83603 24.0003 9.9438 24.0003C13.9524 24.0003 17.224 20.7434 17.224 16.724V8.69813C18.7757 9.80961 20.6766 10.4688 22.7197 10.4688V6.51397C22.3188 6.50105 21.9309 6.46231 21.5559 6.38477Z" fill="#FF0050"/>
<path d="M16.0594 15.7164V7.69052C17.6111 8.802 19.512 9.46114 21.5551 9.46114V6.3852C20.3654 6.12669 19.3309 5.49344 18.5551 4.6146C17.3137 3.81331 16.4215 2.52091 16.1499 1.00879H13.2533V16.8408C13.1887 18.6113 11.7275 20.033 9.94301 20.033C8.83096 20.033 7.84822 19.4902 7.25336 18.6501C6.19302 18.0944 5.46888 16.9829 5.46888 15.7164C5.46888 13.8811 6.95595 12.3949 8.79216 12.3949C9.12838 12.3949 9.46455 12.4466 9.7749 12.55V9.44817C5.84388 9.53868 2.67578 12.7697 2.67578 16.7115C2.67578 18.6243 3.41285 20.369 4.62837 21.6615C5.80509 22.4886 7.25336 22.9797 8.79216 22.9797C12.7879 22.9926 16.0594 19.7228 16.0594 15.7164Z" fill="black"/>
</g>
<defs>
<clipPath id="clip0_2037_151">
<rect width="24" height="24" fill="white"/>
</clipPath>
</defs>
</svg>
